<svg width="24" height="25" viewBox="0 0 24 25" fill="none" xmlns="http://www.w3.org/2000/svg">
<path d="M18 14V22M22 18H14M7 7H16.75C18.857 7 19.91 7 20.667 7.506C20.9943 7.72474 21.2753 8.00575 21.494 8.333C21.959 9.028 21.996 10.184 21.999 12M12 7L11.367 5.733C10.842 4.683 10.362 3.627 9.199 3.191C8.69 3 8.108 3 6.944 3C5.128 3 4.22 3 3.538 3.38C3.05208 3.65114 2.65114 4.05208 2.38 4.538C2 5.22 2 6.128 2 7.944V11C2 15.714 2 18.071 3.464 19.535C4.822 20.894 6.944 20.993 11 21" stroke="#AE76DA" stroke-width="1.5" stroke-linecap="round" stroke-linejoin="round"/>
</svg>
