<svg width="33" height="33" viewBox="0 0 33 33" fill="none" xmlns="http://www.w3.org/2000/svg">
<path d="M6.7959 16.4992C6.7959 16.1126 6.94946 15.7419 7.2228 15.4685C7.49615 15.1952 7.86688 15.0416 8.25345 15.0416H15.0417V8.25332C15.0417 7.86676 15.1953 7.49603 15.4686 7.22268C15.742 6.94934 16.1127 6.79578 16.4993 6.79578C16.8858 6.79578 17.2566 6.94934 17.5299 7.22268C17.8033 7.49603 17.9568 7.86676 17.9568 8.25332V15.0416H24.7451C25.1317 15.0416 25.5024 15.1952 25.7758 15.4685C26.0491 15.7419 26.2027 16.1126 26.2027 16.4992C26.2027 16.8857 26.0491 17.2565 25.7758 17.5298C25.5024 17.8031 25.1317 17.9567 24.7451 17.9567H17.9568V24.745C17.9568 25.1316 17.8033 25.5023 17.5299 25.7756C17.2566 26.049 16.8858 26.2025 16.4993 26.2025C16.1127 26.2025 15.742 26.049 15.4686 25.7756C15.1953 25.5023 15.0417 25.1316 15.0417 24.745V17.9567H8.25345C7.86688 17.9567 7.49615 17.8031 7.2228 17.5298C6.94946 17.2565 6.7959 16.8857 6.7959 16.4992Z" fill="#AE76DA"/>
<path fill-rule="evenodd" clip-rule="evenodd" d="M7.39849 0.502915C13.4472 -0.167638 19.5516 -0.167638 25.6003 0.502915C29.1509 0.899368 32.0174 3.69592 32.4333 7.26594C33.1524 13.4012 33.1524 19.5987 32.4333 25.734C32.0155 29.3041 29.149 32.0987 25.6003 32.4971C19.5516 33.1676 13.4472 33.1676 7.39849 32.4971C3.8479 32.0987 0.98139 29.3041 0.565503 25.734C-0.152043 19.5989 -0.152043 13.4011 0.565503 7.26594C0.98139 3.69592 3.84984 0.899368 7.39849 0.502915ZM25.2777 3.39858C19.4434 2.75188 13.5554 2.75188 7.72109 3.39858C6.64103 3.5184 5.63291 3.99884 4.85959 4.76229C4.08627 5.52574 3.59291 6.5276 3.45922 7.60603C2.76805 13.5158 2.76805 19.4861 3.45922 25.3959C3.59332 26.474 4.08685 27.4754 4.86014 28.2384C5.63343 29.0015 6.64132 29.4817 7.72109 29.6014C13.5066 30.2466 19.4922 30.2466 25.2777 29.6014C26.3572 29.4813 27.3646 29.0009 28.1375 28.2379C28.9104 27.4749 29.4037 26.4737 29.5377 25.3959C30.2289 19.4861 30.2289 13.5158 29.5377 7.60603C29.4032 6.5286 28.9098 5.52785 28.137 4.76522C27.3641 4.00258 26.3569 3.52252 25.2777 3.40246" fill="#AE76DA"/>
</svg>
