<svg width="32" height="28" viewBox="0 0 32 28" fill="none" xmlns="http://www.w3.org/2000/svg">
<rect y="0.5" width="32" height="27" rx="5" fill="#211427"/>
<g clip-path="url(#clip0_39_1994)">
<path fill-rule="evenodd" clip-rule="evenodd" d="M11.9401 13.4399C11.6592 13.7212 11.5014 14.1024 11.5014 14.4999C11.5014 14.8974 11.6592 15.2787 11.9401 15.5599L17.5961 21.2179C17.8775 21.4992 18.2591 21.6571 18.657 21.657C19.0548 21.6569 19.4363 21.4988 19.7176 21.2174C19.9989 20.936 20.1568 20.5544 20.1567 20.1566C20.1566 19.7587 19.9985 19.3772 19.7171 19.0959L15.1211 14.4999L19.7171 9.90391C19.9905 9.62114 20.1419 9.2423 20.1386 8.84901C20.1354 8.45571 19.9778 8.07941 19.6998 7.80117C19.4219 7.52292 19.0457 7.36499 18.6524 7.36139C18.2591 7.35779 17.8801 7.5088 17.5971 7.78191L11.9391 13.4389L11.9401 13.4399Z" fill="#AE76DA"/>
</g>
<defs>
<clipPath id="clip0_39_1994">
<rect width="24" height="24" fill="white" transform="matrix(-1 0 0 1 28 2.5)"/>
</clipPath>
</defs>
</svg>
