<svg width="216" height="70" viewBox="0 0 216 70" fill="none" xmlns="http://www.w3.org/2000/svg">
<rect width="216" height="70" rx="20" fill="url(#paint0_linear_36_60)"/>
<path d="M44.1125 35.58V38H41.6525C41.5592 39.2 41.0258 40.16 40.0525 40.88C39.2525 41.4667 38.3192 41.76 37.2525 41.76C36.4125 41.76 35.5925 41.5333 34.7925 41.08V38.9C35.5125 39.3133 36.2325 39.52 36.9525 39.52C37.5125 39.52 38.0058 39.3667 38.4325 39.06C38.8725 38.7533 39.1125 38.3867 39.1525 37.96C39.0458 37.9467 38.8792 37.9333 38.6525 37.92C38.4258 37.8933 38.2525 37.8733 38.1325 37.86C36.7592 37.7133 35.6992 37.1733 34.9525 36.24C34.3258 35.4533 34.0125 34.5 34.0125 33.38C34.0125 31.9133 34.4125 30.7533 35.2125 29.9C35.9192 29.1533 36.8525 28.78 38.0125 28.78C39.1992 28.78 40.1258 29.16 40.7925 29.92C41.3658 30.5733 41.6525 31.4267 41.6525 32.48V35.58H44.1125ZM39.1525 32.44C39.1525 31.56 38.7725 31.12 38.0125 31.12C36.9992 31.12 36.4925 31.8467 36.4925 33.3C36.4925 34.5933 37.0792 35.3133 38.2525 35.46C38.4392 35.5 38.7392 35.5333 39.1525 35.56V32.44ZM42.9156 38V35.58H44.7156C45.2223 35.58 45.5823 35.4733 45.7956 35.26C46.009 35.0333 46.1156 34.66 46.1156 34.14V30.44L48.6356 29.12V34.26C48.6356 35.4733 48.2623 36.42 47.5156 37.1C46.8623 37.7 46.009 38 44.9556 38H42.9156ZM43.9956 42.46C43.5956 42.46 43.2756 42.34 43.0356 42.1C42.7956 41.86 42.6756 41.5333 42.6756 41.12C42.6756 40.2533 43.1156 39.82 43.9956 39.82C44.3956 39.82 44.709 39.9333 44.9356 40.16C45.1756 40.4 45.2956 40.72 45.2956 41.12C45.2956 42.0133 44.8623 42.46 43.9956 42.46ZM47.0756 42.46C46.6756 42.46 46.3556 42.34 46.1156 42.1C45.8756 41.86 45.7556 41.5333 45.7556 41.12C45.7556 40.2533 46.1956 39.82 47.0756 39.82C47.4756 39.82 47.789 39.9333 48.0156 40.16C48.2556 40.4 48.3756 40.72 48.3756 41.12C48.3756 42.0133 47.9423 42.46 47.0756 42.46ZM50.6297 38L51.8897 35.58H55.0497C55.7297 35.58 56.0697 35.1867 56.0697 34.4C56.0697 32.9333 55.363 31.8067 53.9497 31.02L55.1897 28.88C57.2697 30.0933 58.3897 31.74 58.5497 33.82C58.603 34.4867 58.7497 34.9467 58.9897 35.2C59.243 35.4533 59.6697 35.58 60.2697 35.58H61.7897V38H60.1297C59.143 38 58.3097 37.7267 57.6297 37.18C57.1364 37.7267 56.4297 38 55.5097 38H50.6297ZM67.7114 35.58H69.5114V38H67.4714C66.4981 38 65.6914 37.74 65.0514 37.22C64.4114 37.74 63.6047 38 62.6314 38H60.5914V35.58H62.3914C62.8981 35.58 63.2581 35.4733 63.4714 35.26C63.6847 35.0333 63.7914 34.66 63.7914 34.14V30.44L66.3114 29.12V34.14C66.3114 34.66 66.4181 35.0333 66.6314 35.26C66.8447 35.4733 67.2047 35.58 67.7114 35.58ZM62.5314 39.82C62.9314 39.82 63.2447 39.9333 63.4714 40.16C63.7114 40.4 63.8314 40.72 63.8314 41.12C63.8314 42.0133 63.3981 42.46 62.5314 42.46C62.1314 42.46 61.8114 42.34 61.5714 42.1C61.3314 41.86 61.2114 41.5333 61.2114 41.12C61.2114 40.2533 61.6514 39.82 62.5314 39.82ZM65.6114 39.82C66.0114 39.82 66.3247 39.9333 66.5514 40.16C66.7914 40.4 66.9114 40.72 66.9114 41.12C66.9114 42.0133 66.4781 42.46 65.6114 42.46C65.2114 42.46 64.8914 42.34 64.6514 42.1C64.4114 41.86 64.2914 41.5333 64.2914 41.12C64.2914 40.2533 64.7314 39.82 65.6114 39.82ZM74.6463 27.36C74.2462 27.36 73.9263 27.24 73.6863 27C73.4463 26.76 73.3263 26.4333 73.3263 26.02C73.3263 25.6333 73.4463 25.32 73.6863 25.08C73.9263 24.84 74.2462 24.72 74.6463 24.72C75.0463 24.72 75.3596 24.84 75.5863 25.08C75.8263 25.3067 75.9463 25.62 75.9463 26.02C75.9463 26.9133 75.5129 27.36 74.6463 27.36ZM77.8463 35.58H81.0063V38H76.2663C75.5863 38 75.0529 37.9533 74.6663 37.86C74.2529 37.9533 73.7196 38 73.0663 38H68.3062V35.58H71.4663C70.9596 34.7667 70.7063 33.94 70.7063 33.1C70.7063 31.7667 71.0996 30.6933 71.8863 29.88C72.5929 29.1467 73.5196 28.78 74.6663 28.78C75.9729 28.78 76.9863 29.2533 77.7063 30.2C78.3063 30.9733 78.6063 31.94 78.6063 33.1C78.6063 33.94 78.3529 34.7667 77.8463 35.58ZM74.6463 35.36C75.0996 35.1467 75.4663 34.82 75.7463 34.38C76.0396 33.9267 76.1863 33.4533 76.1863 32.96C76.1863 32.3867 76.0463 31.94 75.7663 31.62C75.4996 31.2867 75.1329 31.12 74.6663 31.12C73.6529 31.12 73.1463 31.7267 73.1463 32.94C73.1463 33.46 73.2863 33.9467 73.5663 34.4C73.8463 34.84 74.2063 35.16 74.6463 35.36ZM79.8102 38V35.58H81.0702C81.6835 35.58 82.1168 35.4467 82.3702 35.18C82.6368 34.9133 82.7702 34.46 82.7702 33.82V26.44L85.2702 25.1V33.84C85.2702 35.1333 84.8768 36.1667 84.0902 36.94C83.3702 37.6467 82.4102 38 81.2102 38H79.8102ZM88.8703 38V26.44L91.3903 25.1V38H88.8703ZM112.068 35.58H114.148V38H111.828C111.428 38 110.988 37.9 110.508 37.7C110.215 39.02 109.528 40.06 108.448 40.82C107.475 41.4867 106.322 41.82 104.988 41.82C103.095 41.82 101.628 41.1933 100.588 39.94C99.7883 38.98 99.3883 37.84 99.3883 36.52C99.3883 35.48 99.6283 34.56 100.108 33.76L102.588 33.2C102.042 34.0667 101.768 35.06 101.768 36.18C101.768 37.1667 102.055 37.9467 102.628 38.52C103.215 39.1067 104.002 39.4 104.988 39.4C105.962 39.4 106.735 39.1267 107.308 38.58C107.882 38.0333 108.168 37.2867 108.168 36.34V26.44L110.668 25.1V34.14C110.668 34.66 110.775 35.0333 110.988 35.26C111.202 35.4733 111.562 35.58 112.068 35.58ZM120.075 35.58H121.875V38H119.835C118.861 38 118.055 37.74 117.415 37.22C116.775 37.74 115.968 38 114.995 38H112.955V35.58H114.755C115.261 35.58 115.621 35.4733 115.835 35.26C116.048 35.0333 116.155 34.66 116.155 34.14V30.44L118.675 29.12V34.14C118.675 34.66 118.781 35.0333 118.995 35.26C119.208 35.4733 119.568 35.58 120.075 35.58ZM114.895 39.82C115.295 39.82 115.608 39.9333 115.835 40.16C116.075 40.4 116.195 40.72 116.195 41.12C116.195 42.0133 115.761 42.46 114.895 42.46C114.495 42.46 114.175 42.34 113.935 42.1C113.695 41.86 113.575 41.5333 113.575 41.12C113.575 40.2533 114.015 39.82 114.895 39.82ZM117.975 39.82C118.375 39.82 118.688 39.9333 118.915 40.16C119.155 40.4 119.275 40.72 119.275 41.12C119.275 42.0133 118.841 42.46 117.975 42.46C117.575 42.46 117.255 42.34 117.015 42.1C116.775 41.86 116.655 41.5333 116.655 41.12C116.655 40.2533 117.095 39.82 117.975 39.82ZM133.39 35.58H135.17V38H133.13C132.17 38 131.383 37.7533 130.77 37.26C130.05 38.02 129.103 38.4 127.93 38.4C126.73 38.4 125.783 38.02 125.09 37.26C124.45 37.7533 123.656 38 122.71 38H120.67V35.58H122.47C122.976 35.58 123.336 35.4733 123.55 35.26C123.763 35.0333 123.87 34.66 123.87 34.14V33.56C123.87 32 124.276 30.7867 125.09 29.92C125.796 29.16 126.743 28.78 127.93 28.78C129.276 28.78 130.316 29.2733 131.05 30.26C131.663 31.1 131.97 32.2 131.97 33.56V34.14C131.97 34.66 132.076 35.0333 132.29 35.26C132.516 35.4733 132.883 35.58 133.39 35.58ZM127.93 35.98C128.943 35.98 129.45 35.1533 129.45 33.5C129.45 31.9133 128.943 31.12 127.93 31.12C126.903 31.12 126.39 31.9133 126.39 33.5C126.39 35.1533 126.903 35.98 127.93 35.98ZM147.01 35.58H148.69V38H146.99C145.937 38 145.09 37.8867 144.45 37.66C143.824 37.42 143.237 37.0067 142.69 36.42C141.024 37.4733 139.104 38 136.93 38H133.97V35.58H136.95C139.297 35.58 141.164 34.88 142.55 33.48C141.644 31.8933 140.544 31.1 139.25 31.1C138.184 31.1 137.017 31.68 135.75 32.84V30.62C136.87 29.3933 138.137 28.78 139.55 28.78C140.59 28.78 141.604 29.16 142.59 29.92C143.577 30.68 144.45 31.76 145.21 33.16V34.16C144.997 34.44 144.717 34.7533 144.37 35.1C144.904 35.42 145.784 35.58 147.01 35.58ZM148.926 27.1C148.526 27.1 148.206 26.98 147.966 26.74C147.726 26.5 147.606 26.1733 147.606 25.76C147.606 24.8933 148.046 24.46 148.926 24.46C149.326 24.46 149.639 24.58 149.866 24.82C150.106 25.0467 150.226 25.36 150.226 25.76C150.226 26.6533 149.793 27.1 148.926 27.1ZM152.006 27.1C151.606 27.1 151.286 26.98 151.046 26.74C150.806 26.5 150.686 26.1733 150.686 25.76C150.686 24.8933 151.126 24.46 152.006 24.46C152.406 24.46 152.719 24.58 152.946 24.82C153.186 25.0467 153.306 25.36 153.306 25.76C153.306 26.6533 152.873 27.1 152.006 27.1ZM147.486 38V35.58H149.286C149.793 35.58 150.153 35.4733 150.366 35.26C150.579 35.0333 150.686 34.66 150.686 34.14V30.44L153.206 29.12V34.26C153.206 35.4733 152.833 36.42 152.086 37.1C151.433 37.7 150.579 38 149.526 38H147.486Z" fill="white"/>
<path d="M174.5 28.3205H168.595C168.122 28.3205 167.654 28.4137 167.217 28.5949C166.781 28.776 166.384 29.0416 166.05 29.3762C165.716 29.7109 165.452 30.1082 165.271 30.5453C165.091 30.9823 164.999 31.4507 165 31.9235V38.0855C165 39.0389 165.379 39.9533 166.053 40.6275C166.387 40.9613 166.783 41.2261 167.219 41.4068C167.655 41.5875 168.123 41.6805 168.595 41.6805H174.5C175.453 41.6805 176.368 41.3017 177.042 40.6275C177.716 39.9533 178.095 39.0389 178.095 38.0855V31.9245C178.096 31.4515 178.005 30.9829 177.825 30.5455C177.644 30.1081 177.38 29.7106 177.046 29.3756C176.712 29.0407 176.315 28.775 175.878 28.5938C175.441 28.4126 174.973 28.3193 174.5 28.3195M184 32.4385V37.5735C184 37.8235 183.929 38.0695 183.795 38.2815C183.66 38.4943 183.467 38.665 183.24 38.7745C183.014 38.8874 182.76 38.9306 182.51 38.8985C182.263 38.869 182.029 38.7729 181.833 38.6205L178.608 36.0325C178.453 35.9052 178.328 35.7455 178.241 35.5646C178.154 35.3838 178.107 35.1861 178.105 34.9855C178.105 34.7855 178.15 34.5885 178.238 34.4105C178.33 34.2425 178.456 34.0955 178.608 33.9785L181.833 31.4115C182.029 31.2585 182.264 31.1623 182.511 31.1335C182.761 31.1015 183.015 31.1445 183.24 31.2565C183.464 31.3634 183.654 31.5307 183.788 31.7395C183.922 31.9482 183.996 32.1903 184 32.4385Z" stroke="white" stroke-width="1.5" stroke-linecap="round" stroke-linejoin="round"/>
<defs>
<linearGradient id="paint0_linear_36_60" x1="14" y1="35" x2="317" y2="35" gradientUnits="userSpaceOnUse">
<stop stop-color="#3E0070"/>
<stop offset="1" stop-color="#FF4444"/>
</linearGradient>
</defs>
</svg>
