<svg width="24" height="25" viewBox="0 0 24 25" fill="none" xmlns="http://www.w3.org/2000/svg">
<mask id="mask0_39_2516" style="mask-type:alpha" maskUnits="userSpaceOnUse" x="1" y="0" width="23" height="23">
<path d="M1.32129 10.0877C1.32129 5.33651 1.32129 2.9603 2.79792 1.48493C4.27329 0.00830063 6.6495 0.00830078 11.4007 0.00830078H13.9205C18.6717 0.00830078 21.0479 0.00830063 22.5233 1.48493C23.9999 2.9603 23.9999 5.33651 23.9999 10.0877V12.6075C23.9999 17.3587 23.9999 19.7349 22.5233 21.2103C21.0479 22.6869 18.6717 22.6869 13.9205 22.6869H11.4007C6.6495 22.6869 4.27329 22.6869 2.79792 21.2103C1.32129 19.7349 1.32129 17.3587 1.32129 12.6075V10.0877Z" fill="black"/>
</mask>
<g mask="url(#mask0_39_2516)">
<path d="M13.5287 14.5858L11.6426 12.5283C10.0425 10.7834 9.24368 9.91023 8.20299 9.86361C7.16355 9.81573 6.28791 10.612 4.53661 12.2045L2.1163 14.4056C1.73958 14.7471 1.55186 14.9184 1.44476 15.1402C1.43397 15.1634 1.42388 15.1869 1.41452 15.2107C1.32129 15.4375 1.32129 15.6933 1.32129 16.201C1.32129 20.8237 1.32129 23.1344 2.68579 24.5883C2.82312 24.7345 2.96801 24.8718 3.12172 25.0003C4.64875 26.2817 6.95692 26.1544 11.5708 25.8974L15.7436 25.6656C19.032 25.4829 20.6775 25.3909 21.8543 24.5644C22.4099 24.1738 22.8811 23.6774 23.2402 23.1016C23.9999 21.8795 23.9999 20.2315 23.9999 16.9381V16.6937C23.9999 16.1796 23.9999 15.9226 23.952 15.6794C23.8868 15.3552 23.7584 15.0469 23.574 14.7723C23.438 14.5644 23.2553 14.383 22.8937 14.0201C22.0621 13.1898 21.6464 12.7753 21.184 12.5838C20.5668 12.3283 19.8735 12.3283 19.2563 12.5838C18.7926 12.7753 18.3781 13.1898 17.5478 14.0201L16.9091 14.6589C16.1632 15.4048 15.789 15.7789 15.3367 15.8205C15.241 15.8294 15.1446 15.8273 15.0494 15.8142C14.5984 15.7525 14.2418 15.3644 13.5287 14.5858Z" fill="#AE76DA"/>
</g>
<path d="M5.1009 6.30776C6.49257 6.30776 7.62075 5.17958 7.62075 3.78791C7.62075 2.39624 6.49257 1.26807 5.1009 1.26807C3.70923 1.26807 2.58105 2.39624 2.58105 3.78791C2.58105 5.17958 3.70923 6.30776 5.1009 6.30776Z" fill="#AE76DA"/>
<path d="M22.74 1.2684V0.512451H23.4959V1.2684H22.74ZM15.7147 9.36215C15.5714 9.49568 15.3818 9.56838 15.186 9.56492C14.9901 9.56147 14.8033 9.48213 14.6648 9.34362C14.5263 9.20512 14.4469 9.01826 14.4435 8.82242C14.44 8.62658 14.5127 8.43704 14.6462 8.29374L15.7147 9.36215ZM21.984 7.56802V1.2684H23.4959V7.56802H21.984ZM22.74 2.02436H16.4404V0.512451H22.74V2.02436ZM23.2742 1.80261L15.7147 9.36215L14.6462 8.29374L22.2058 0.734197L23.2742 1.80261Z" fill="#AE76DA"/>
<rect y="16.4008" width="9" height="8.59091" rx="1.83994" fill="#140C18"/>
<path d="M2.24292 21.1001C2.24292 21.0188 2.27525 20.9407 2.33278 20.8832C2.39032 20.8257 2.46836 20.7933 2.54974 20.7933H3.97869V19.3644C3.97869 19.283 4.01102 19.205 4.06856 19.1474C4.1261 19.0899 4.20414 19.0576 4.28551 19.0576C4.36688 19.0576 4.44492 19.0899 4.50246 19.1474C4.56 19.205 4.59233 19.283 4.59233 19.3644V20.7933H6.02128C6.10266 20.7933 6.1807 20.8257 6.23824 20.8832C6.29578 20.9407 6.3281 21.0188 6.3281 21.1001C6.3281 21.1815 6.29578 21.2596 6.23824 21.3171C6.1807 21.3746 6.10266 21.407 6.02128 21.407H4.59233V22.8359C4.59233 22.9173 4.56 22.9953 4.50246 23.0529C4.44492 23.1104 4.36688 23.1427 4.28551 23.1427C4.20414 23.1427 4.1261 23.1104 4.06856 23.0529C4.01102 22.9953 3.97869 22.9173 3.97869 22.8359V21.407H2.54974C2.46836 21.407 2.39032 21.3746 2.33278 21.3171C2.27525 21.2596 2.24292 21.1815 2.24292 21.1001Z" fill="#AE76DA"/>
<path fill-rule="evenodd" clip-rule="evenodd" d="M2.36976 17.7336C3.64304 17.5924 4.92803 17.5924 6.20131 17.7336C6.94872 17.817 7.55213 18.4057 7.63967 19.1572C7.79104 20.4487 7.79104 21.7533 7.63967 23.0448C7.55172 23.7963 6.94831 24.3846 6.20131 24.4684C4.92803 24.6096 3.64304 24.6096 2.36976 24.4684C1.62235 24.3846 1.01894 23.7963 0.931399 23.0448C0.780354 21.7533 0.780354 20.4486 0.931399 19.1572C1.01894 18.4057 1.62276 17.817 2.36976 17.7336ZM6.1334 18.3431C4.90525 18.207 3.66582 18.207 2.43767 18.3431C2.21032 18.3683 1.9981 18.4695 1.83532 18.6302C1.67253 18.7909 1.56868 19.0018 1.54054 19.2288C1.39504 20.4728 1.39504 21.7296 1.54054 22.9736C1.56876 23.2005 1.67265 23.4113 1.83543 23.572C1.99821 23.7326 2.21038 23.8337 2.43767 23.8589C3.65554 23.9947 4.91554 23.9947 6.1334 23.8589C6.36062 23.8336 6.57269 23.7325 6.73539 23.5718C6.89809 23.4112 7.00192 23.2005 7.03013 22.9736C7.17562 21.7296 7.17562 20.4728 7.03013 19.2288C7.00183 19.002 6.89796 18.7913 6.73527 18.6308C6.57258 18.4702 6.36056 18.3692 6.1334 18.3439" fill="#AE76DA"/>
</svg>
