<svg width="26" height="26" viewBox="0 0 26 26" fill="none" xmlns="http://www.w3.org/2000/svg">
<path d="M20.1977 13.4312L25.0001 14.6323V12.2307L20.1977 11.0303V20.6352V13.4312ZM17.7961 18.2342C17.4777 18.2293 17.1614 18.2878 16.8658 18.4062C16.5701 18.5247 16.301 18.7008 16.074 18.9242C15.8471 19.1477 15.6668 19.4141 15.5438 19.7079C15.4208 20.0017 15.3574 20.317 15.3574 20.6355C15.3574 20.954 15.4208 21.2693 15.5438 21.5631C15.6668 21.8569 15.8471 22.1232 16.074 22.3467C16.301 22.5702 16.5701 22.7463 16.8658 22.8647C17.1614 22.9832 17.4777 23.0416 17.7961 23.0367C18.4265 23.0269 19.0278 22.7697 19.4702 22.3204C19.9125 21.8711 20.1605 21.266 20.1605 20.6355C20.1605 20.005 19.9125 19.3998 19.4702 18.9505C19.0278 18.5013 18.4265 18.244 17.7961 18.2342Z" stroke="#AE76DA" stroke-linecap="round" stroke-linejoin="round"/>
<path d="M10.5922 23.0367H4.58865C4.27027 23.0367 3.96492 22.9102 3.73979 22.6851C3.51466 22.4599 3.38818 22.1546 3.38818 21.8362V2.62521C3.38818 2.30683 3.51466 2.00149 3.73979 1.77635C3.96492 1.55122 4.27027 1.42474 4.58865 1.42474H18.9966C19.1543 1.42467 19.3105 1.45566 19.4562 1.51596C19.6019 1.57625 19.7343 1.66467 19.8458 1.77615C19.9574 1.88763 20.0458 2.02 20.1062 2.16568C20.1666 2.31137 20.1976 2.46752 20.1976 2.62521V6.2272" stroke="#AE76DA" stroke-linecap="round" stroke-linejoin="round"/>
<path d="M11.7924 13.4312C12.7477 13.4312 13.6639 13.0517 14.3394 12.3762C15.0149 11.7007 15.3944 10.7845 15.3944 9.82922C15.3944 8.87391 15.0149 7.95773 14.3394 7.28223C13.6639 6.60673 12.7477 6.22723 11.7924 6.22723C10.8371 6.22723 9.92093 6.60673 9.24543 7.28223C8.56992 7.95773 8.19043 8.87391 8.19043 9.82922C8.19043 10.7845 8.56992 11.7007 9.24543 12.3762C9.92093 13.0517 10.8371 13.4312 11.7924 13.4312Z" stroke="#AE76DA" stroke-linecap="round" stroke-linejoin="round"/>
<rect y="16.9843" width="9" height="8.59091" rx="0.830573" fill="#140C18"/>
<path d="M2.24292 21.6841C2.24292 21.6028 2.27525 21.5247 2.33278 21.4672C2.39032 21.4096 2.46836 21.3773 2.54974 21.3773H3.97869V19.9484C3.97869 19.867 4.01102 19.7889 4.06856 19.7314C4.1261 19.6739 4.20414 19.6415 4.28551 19.6415C4.36688 19.6415 4.44492 19.6739 4.50246 19.7314C4.56 19.7889 4.59233 19.867 4.59233 19.9484V21.3773H6.02128C6.10266 21.3773 6.1807 21.4096 6.23824 21.4672C6.29578 21.5247 6.3281 21.6028 6.3281 21.6841C6.3281 21.7655 6.29578 21.8435 6.23824 21.9011C6.1807 21.9586 6.10266 21.9909 6.02128 21.9909H4.59233V23.4199C4.59233 23.5013 4.56 23.5793 4.50246 23.6369C4.44492 23.6944 4.36688 23.7267 4.28551 23.7267C4.20414 23.7267 4.1261 23.6944 4.06856 23.6369C4.01102 23.5793 3.97869 23.5013 3.97869 23.4199V21.9909H2.54974C2.46836 21.9909 2.39032 21.9586 2.33278 21.9011C2.27525 21.8435 2.24292 21.7655 2.24292 21.6841Z" fill="#AE76DA"/>
<path fill-rule="evenodd" clip-rule="evenodd" d="M2.36952 18.3171C3.6428 18.176 4.92778 18.176 6.20106 18.3171C6.94847 18.4006 7.55188 18.9892 7.63943 19.7407C7.79079 21.0322 7.79079 22.3368 7.63943 23.6283C7.55147 24.3798 6.94806 24.9681 6.20106 25.052C4.92778 25.1931 3.6428 25.1931 2.36952 25.052C1.62211 24.9681 1.0187 24.3798 0.931155 23.6283C0.78011 22.3369 0.78011 21.0322 0.931155 19.7407C1.0187 18.9892 1.62252 18.4006 2.36952 18.3171ZM6.13315 18.9267C4.90501 18.7905 3.66558 18.7905 2.43743 18.9267C2.21007 18.9519 1.99786 19.053 1.83507 19.2137C1.67229 19.3744 1.56843 19.5853 1.54029 19.8123C1.3948 21.0564 1.3948 22.3131 1.54029 23.5572C1.56852 23.7841 1.67241 23.9949 1.83519 24.1555C1.99797 24.3161 2.21013 24.4172 2.43743 24.4424C3.65529 24.5782 4.91529 24.5782 6.13315 24.4424C6.36037 24.4171 6.57245 24.316 6.73514 24.1554C6.89784 23.9948 7.00167 23.784 7.02988 23.5572C7.17538 22.3131 7.17538 21.0564 7.02988 19.8123C7.00159 19.5855 6.89772 19.3749 6.73503 19.2143C6.57234 19.0538 6.36031 18.9527 6.13315 18.9275" fill="#AE76DA"/>
</svg>
