<svg width="16" height="16" viewBox="0 0 16 16" fill="none" xmlns="http://www.w3.org/2000/svg">
<path d="M6.40002 2.6V2.8H9.60002V2.6C9.60002 2.17565 9.43145 1.76869 9.1314 1.46863C8.83134 1.16857 8.42437 1 8.00002 1C7.57568 1 7.16871 1.16857 6.86865 1.46863C6.5686 1.76869 6.40002 2.17565 6.40002 2.6ZM5.40002 2.8V2.6C5.40002 1.91044 5.67395 1.24912 6.16155 0.761522C6.64914 0.273928 7.31046 0 8.00002 0C8.68959 0 9.35091 0.273928 9.8385 0.761522C10.3261 1.24912 10.6 1.91044 10.6 2.6V2.8H15.1C15.2326 2.8 15.3598 2.85268 15.4536 2.94645C15.5473 3.04021 15.6 3.16739 15.6 3.3C15.6 3.43261 15.5473 3.55979 15.4536 3.65355C15.3598 3.74732 15.2326 3.8 15.1 3.8H13.9332L13.1332 13.3424C13.0724 14.067 12.7416 14.7424 12.2064 15.2346C11.6711 15.7269 10.9704 16 10.2432 16H5.75682C5.0297 15.9999 4.32913 15.7267 3.79394 15.2345C3.25876 14.7423 2.928 14.067 2.86722 13.3424L2.06722 3.8H0.900024C0.767416 3.8 0.640239 3.74732 0.546471 3.65355C0.452703 3.55979 0.400024 3.43261 0.400024 3.3C0.400024 3.16739 0.452703 3.04021 0.546471 2.94645C0.640239 2.85268 0.767416 2.8 0.900024 2.8H5.40002ZM3.86362 13.2588C3.90344 13.7335 4.12014 14.176 4.47079 14.4985C4.82143 14.821 5.28043 15 5.75682 15H10.2432C10.7197 15.0001 11.1788 14.8211 11.5295 14.4986C11.8802 14.1761 12.097 13.7336 12.1368 13.2588L12.9296 3.8H3.07042L3.86362 13.2588ZM7.00002 6.5C7.00002 6.43434 6.98709 6.36932 6.96196 6.30866C6.93684 6.248 6.90001 6.19288 6.85358 6.14645C6.80715 6.10002 6.75203 6.06319 6.69137 6.03806C6.6307 6.01293 6.56569 6 6.50002 6C6.43436 6 6.36935 6.01293 6.30868 6.03806C6.24802 6.06319 6.1929 6.10002 6.14647 6.14645C6.10004 6.19288 6.06321 6.248 6.03808 6.30866C6.01296 6.36932 6.00002 6.43434 6.00002 6.5V12.3C6.00002 12.3657 6.01296 12.4307 6.03808 12.4913C6.06321 12.552 6.10004 12.6071 6.14647 12.6536C6.1929 12.7 6.24802 12.7368 6.30868 12.7619C6.36935 12.7871 6.43436 12.8 6.50002 12.8C6.56569 12.8 6.6307 12.7871 6.69137 12.7619C6.75203 12.7368 6.80715 12.7 6.85358 12.6536C6.90001 12.6071 6.93684 12.552 6.96196 12.4913C6.98709 12.4307 7.00002 12.3657 7.00002 12.3V6.5ZM9.50002 6C9.77602 6 10 6.224 10 6.5V12.3C10 12.4326 9.94735 12.5598 9.85358 12.6536C9.75981 12.7473 9.63263 12.8 9.50002 12.8C9.36742 12.8 9.24024 12.7473 9.14647 12.6536C9.0527 12.5598 9.00002 12.4326 9.00002 12.3V6.5C9.00002 6.224 9.22402 6 9.50002 6Z" fill="#FF4444"/>
</svg>
