<svg width="40" height="39" viewBox="0 0 40 39" fill="none" xmlns="http://www.w3.org/2000/svg">
<rect x="0.933838" width="38.1323" height="38.1323" rx="19.0662" fill="#FFEDED"/>
<mask id="mask0_39_3183" style="mask-type:alpha" maskUnits="userSpaceOnUse" x="9" y="8" width="22" height="22">
<path d="M9.375 17.8854C9.375 13.4335 9.375 11.207 10.7586 9.82453C12.141 8.44092 14.3676 8.44092 18.8194 8.44092H21.1806C25.6324 8.44092 27.859 8.44092 29.2414 9.82453C30.625 11.207 30.625 13.4335 30.625 17.8854V20.2465C30.625 24.6983 30.625 26.9249 29.2414 28.3073C27.859 29.6909 25.6324 29.6909 21.1806 29.6909H18.8194C14.3676 29.6909 12.141 29.6909 10.7586 28.3073C9.375 26.9249 9.375 24.6983 9.375 20.2465V17.8854Z" fill="black"/>
</mask>
<g mask="url(#mask0_39_3183)">
<path d="M20.8134 22.1L19.0461 20.1721C17.5468 18.5371 16.7983 17.7189 15.8232 17.6752C14.8492 17.6304 14.0287 18.3765 12.3878 19.8687L10.1199 21.9312C9.76694 22.2511 9.59104 22.4116 9.49069 22.6194C9.48058 22.6412 9.47113 22.6632 9.46236 22.6855C9.375 22.898 9.375 23.1377 9.375 23.6134C9.375 27.9449 9.375 30.11 10.6535 31.4724C10.7822 31.6093 10.918 31.738 11.062 31.8584C12.4928 33.0591 14.6556 32.9398 18.9788 32.699L22.8888 32.4818C25.9701 32.3106 27.5119 32.2244 28.6145 31.45C29.1351 31.084 29.5767 30.6189 29.9131 30.0793C30.625 28.9342 30.625 27.39 30.625 24.3041V24.075C30.625 23.5934 30.625 23.3525 30.5801 23.1247C30.519 22.8209 30.3987 22.532 30.226 22.2747C30.0985 22.0799 29.9273 21.9099 29.5885 21.5699C28.8093 20.7919 28.4197 20.4035 27.9865 20.2241C27.4082 19.9847 26.7585 19.9847 26.1802 20.2241C25.7458 20.4035 25.3574 20.7919 24.5794 21.5699L23.9808 22.1684C23.2819 22.8673 22.9313 23.218 22.5075 23.2569C22.4178 23.2652 22.3275 23.2633 22.2383 23.251C21.8157 23.1932 21.4816 22.8296 20.8134 22.1Z" fill="#7838AB"/>
</g>
<path d="M12.9168 14.3433C14.2208 14.3433 15.2779 13.2862 15.2779 11.9822C15.2779 10.6782 14.2208 9.62109 12.9168 9.62109C11.6128 9.62109 10.5557 10.6782 10.5557 11.9822C10.5557 13.2862 11.6128 14.3433 12.9168 14.3433Z" fill="#7838AB"/>
<path d="M29.4444 9.62142V8.91309H30.1527V9.62142H29.4444ZM22.8616 17.2053C22.7274 17.3304 22.5498 17.3985 22.3662 17.3953C22.1827 17.3921 22.0077 17.3177 21.8779 17.188C21.7481 17.0582 21.6738 16.8831 21.6705 16.6996C21.6673 16.5161 21.7354 16.3385 21.8605 16.2042L22.8616 17.2053ZM28.7361 15.5242V9.62142H30.1527V15.5242H28.7361ZM29.4444 10.3298H23.5416V8.91309H29.4444V10.3298ZM29.945 10.122L22.8616 17.2053L21.8605 16.2042L28.9439 9.12086L29.945 10.122Z" fill="#7838AB"/>
</svg>
