<svg width="40" height="39" viewBox="0 0 40 39" fill="none" xmlns="http://www.w3.org/2000/svg">
<rect x="0.933838" width="38.1323" height="38.1323" rx="19.0662" fill="#FFEDED"/>
<path d="M26 17.0659H21" stroke="#7838AB" stroke-width="1.5" stroke-linecap="round"/>
<path d="M18 10.0659H24.5C24.964 10.0659 25.197 10.0659 25.392 10.0919C26.0465 10.1782 26.6543 10.478 27.1211 10.9448C27.5879 11.4117 27.8877 12.0194 27.974 12.6739C28 12.8689 28 13.1019 28 13.5659" stroke="#7838AB" stroke-width="1.5"/>
<path d="M30 18.8639C30 16.2319 30 14.9149 29.23 14.0599C29.1594 13.981 29.0846 13.9059 29.006 13.8349C28.151 13.0659 26.834 13.0659 24.202 13.0659H23.828C22.675 13.0659 22.098 13.0659 21.56 12.9129C21.2648 12.8285 20.9802 12.7104 20.712 12.5609C20.224 12.2899 19.816 11.8809 19 11.0659L18.45 10.5159C18.176 10.2419 18.04 10.1059 17.896 9.98592C17.2767 9.47256 16.5169 9.15786 15.716 9.08292C15.53 9.06592 15.336 9.06592 14.95 9.06592C14.067 9.06592 13.626 9.06592 13.258 9.13592C12.4678 9.28514 11.741 9.66905 11.1723 10.2376C10.6036 10.8061 10.2195 11.5328 10.07 12.3229C10 12.6919 10 13.1339 10 14.0159M29.991 23.0659C29.955 25.5459 29.771 26.9509 28.828 27.8939C27.657 29.0659 25.771 29.0659 22 29.0659H18C14.229 29.0659 12.343 29.0659 11.172 27.8939C10 26.7229 10 24.8369 10 21.0659V18.0659" stroke="#7838AB" stroke-width="1.5" stroke-linecap="round"/>
</svg>
