<svg width="32" height="27" viewBox="0 0 32 27" fill="none" xmlns="http://www.w3.org/2000/svg">
<rect width="32" height="27" rx="5" fill="#0D3A59"/>
<path d="M14.3999 8.1V8.3H17.5999V8.1C17.5999 7.67565 17.4313 7.26869 17.1313 6.96863C16.8312 6.66857 16.4242 6.5 15.9999 6.5C15.5756 6.5 15.1686 6.66857 14.8685 6.96863C14.5685 7.26869 14.3999 7.67565 14.3999 8.1ZM13.3999 8.3V8.1C13.3999 7.41044 13.6738 6.74912 14.1614 6.26152C14.649 5.77393 15.3103 5.5 15.9999 5.5C16.6895 5.5 17.3508 5.77393 17.8384 6.26152C18.326 6.74912 18.5999 7.41044 18.5999 8.1V8.3H23.0999C23.2325 8.3 23.3597 8.35268 23.4535 8.44645C23.5472 8.54021 23.5999 8.66739 23.5999 8.8C23.5999 8.93261 23.5472 9.05979 23.4535 9.15355C23.3597 9.24732 23.2325 9.3 23.0999 9.3H21.9331L21.1331 18.8424C21.0723 19.567 20.7415 20.2424 20.2062 20.7346C19.671 21.2269 18.9703 21.5 18.2431 21.5H13.7567C13.0296 21.4999 12.329 21.2267 11.7938 20.7345C11.2586 20.2423 10.9279 19.567 10.8671 18.8424L10.0671 9.3H8.8999C8.76729 9.3 8.64012 9.24732 8.54635 9.15355C8.45258 9.05979 8.3999 8.93261 8.3999 8.8C8.3999 8.66739 8.45258 8.54021 8.54635 8.44645C8.64012 8.35268 8.76729 8.3 8.8999 8.3H13.3999ZM11.8635 18.7588C11.9033 19.2335 12.12 19.676 12.4707 19.9985C12.8213 20.321 13.2803 20.5 13.7567 20.5H18.2431C18.7196 20.5001 19.1787 20.3211 19.5294 19.9986C19.8801 19.6761 20.0969 19.2336 20.1367 18.7588L20.9295 9.3H11.0703L11.8635 18.7588ZM14.9999 12C14.9999 11.9343 14.987 11.8693 14.9618 11.8087C14.9367 11.748 14.8999 11.6929 14.8535 11.6464C14.807 11.6 14.7519 11.5632 14.6912 11.5381C14.6306 11.5129 14.5656 11.5 14.4999 11.5C14.4342 11.5 14.3692 11.5129 14.3086 11.5381C14.2479 11.5632 14.1928 11.6 14.1463 11.6464C14.0999 11.6929 14.0631 11.748 14.038 11.8087C14.0128 11.8693 13.9999 11.9343 13.9999 12V17.8C13.9999 17.8657 14.0128 17.9307 14.038 17.9913C14.0631 18.052 14.0999 18.1071 14.1463 18.1536C14.1928 18.2 14.2479 18.2368 14.3086 18.2619C14.3692 18.2871 14.4342 18.3 14.4999 18.3C14.5656 18.3 14.6306 18.2871 14.6912 18.2619C14.7519 18.2368 14.807 18.2 14.8535 18.1536C14.8999 18.1071 14.9367 18.052 14.9618 17.9913C14.987 17.9307 14.9999 17.8657 14.9999 17.8V12ZM17.4999 11.5C17.7759 11.5 17.9999 11.724 17.9999 12V17.8C17.9999 17.9326 17.9472 18.0598 17.8535 18.1536C17.7597 18.2473 17.6325 18.3 17.4999 18.3C17.3673 18.3 17.2401 18.2473 17.1463 18.1536C17.0526 18.0598 16.9999 17.9326 16.9999 17.8V12C16.9999 11.724 17.2239 11.5 17.4999 11.5Z" fill="#FF4444"/>
</svg>
