<svg width="159" height="33" viewBox="0 0 159 33" fill="none" xmlns="http://www.w3.org/2000/svg">
<g opacity="0.8">
<rect x="0.527344" y="0.5" width="157" height="32" rx="16" stroke="#FF6F6F"/>
<path d="M11.3726 11.72C11.0446 11.72 10.8806 11.552 10.8806 11.216C10.8806 10.896 11.0446 10.736 11.3726 10.736C11.6846 10.736 11.8406 10.896 11.8406 11.216C11.8406 11.552 11.6846 11.72 11.3726 11.72ZM12.7406 11.72C12.4126 11.72 12.2486 11.552 12.2486 11.216C12.2486 10.896 12.4126 10.736 12.7406 10.736C13.0526 10.736 13.2086 10.896 13.2086 11.216C13.2086 11.552 13.0526 11.72 12.7406 11.72ZM15.0686 17.756H15.4766V18.5H14.9606C14.1046 18.5 13.5086 18.164 13.1726 17.492C12.7566 17.924 12.2446 18.14 11.6366 18.14C10.9486 18.14 10.4046 17.88 10.0046 17.36C9.66863 16.92 9.50063 16.372 9.50063 15.716C9.50063 14.948 9.72463 14.332 10.1726 13.868C10.5646 13.46 11.0486 13.256 11.6246 13.256C12.1446 13.256 12.5806 13.408 12.9326 13.712V13.064L13.7366 12.644V16.388C13.7366 17.3 14.1806 17.756 15.0686 17.756ZM12.9326 14.624C12.5806 14.2 12.1526 13.988 11.6486 13.988C11.2486 13.988 10.9206 14.152 10.6646 14.48C10.4166 14.8 10.2926 15.216 10.2926 15.728C10.2926 16.248 10.4166 16.664 10.6646 16.976C10.9206 17.288 11.2526 17.444 11.6606 17.444C12.1806 17.444 12.6126 17.216 12.9566 16.76C12.9406 16.616 12.9326 16.5 12.9326 16.412V14.624ZM19.0956 17.756H19.5156V18.5H18.9996C18.2796 18.5 17.7396 18.256 17.3796 17.768C17.0036 18.256 16.4596 18.5 15.7476 18.5H15.2316V17.756H15.6516C16.5316 17.756 16.9716 17.3 16.9716 16.388V13.784L17.7756 13.364V16.388C17.7756 17.3 18.2156 17.756 19.0956 17.756ZM16.3716 19.76C16.6916 19.76 16.8516 19.924 16.8516 20.252C16.8516 20.58 16.6916 20.744 16.3716 20.744C16.0516 20.744 15.8916 20.58 15.8916 20.252C15.8916 19.924 16.0516 19.76 16.3716 19.76ZM17.7396 19.76C18.0596 19.76 18.2196 19.924 18.2196 20.252C18.2196 20.58 18.0596 20.744 17.7396 20.744C17.4196 20.744 17.2596 20.58 17.2596 20.252C17.2596 19.924 17.4196 19.76 17.7396 19.76ZM19.9945 11.78C19.6665 11.78 19.5025 11.612 19.5025 11.276C19.5025 10.956 19.6665 10.796 19.9945 10.796C20.3065 10.796 20.4625 10.956 20.4625 11.276C20.4625 11.612 20.3065 11.78 19.9945 11.78ZM21.3625 11.78C21.0345 11.78 20.8705 11.612 20.8705 11.276C20.8705 10.956 21.0345 10.796 21.3625 10.796C21.6745 10.796 21.8305 10.956 21.8305 11.276C21.8305 11.612 21.6745 11.78 21.3625 11.78ZM19.2745 18.5V17.756H19.6945C20.5745 17.756 21.0145 17.3 21.0145 16.388V13.784L21.8185 13.364V16.412C21.8185 17.084 21.6225 17.608 21.2305 17.984C20.8705 18.328 20.3905 18.5 19.7905 18.5H19.2745ZM29.2464 17.756V18.5H27.9744C27.9664 19.028 27.7944 19.492 27.4584 19.892C27.1304 20.3 26.7024 20.568 26.1744 20.696C25.9824 20.752 25.7744 20.78 25.5504 20.78C25.0864 20.78 24.6344 20.668 24.1944 20.444V19.736C24.6104 19.96 25.0224 20.072 25.4304 20.072C25.7584 20.072 26.0464 20 26.2944 19.856C26.5424 19.728 26.7504 19.532 26.9184 19.268C27.0864 19.012 27.1704 18.756 27.1704 18.5L26.1504 18.464C25.2624 18.424 24.5984 18.144 24.1584 17.624C23.7984 17.184 23.6184 16.596 23.6184 15.86C23.6184 14.996 23.8424 14.328 24.2904 13.856C24.6904 13.432 25.2264 13.22 25.8984 13.22C26.5944 13.22 27.1264 13.428 27.4944 13.844C27.8144 14.204 27.9744 14.684 27.9744 15.284V17.756H29.2464ZM27.1704 15.368C27.1704 14.424 26.7464 13.952 25.8984 13.952C25.4264 13.952 25.0584 14.12 24.7944 14.456C24.5384 14.784 24.4104 15.248 24.4104 15.848C24.4104 17.04 24.9984 17.664 26.1744 17.72C26.5264 17.744 26.8584 17.756 27.1704 17.756V15.368ZM41.0011 17.756H41.4211V18.5H40.9051C40.1851 18.5 39.6451 18.256 39.2851 17.768C38.9251 18.256 38.3811 18.5 37.6531 18.5H32.7691C32.0491 18.5 31.5091 18.256 31.1491 17.768C30.7731 18.256 30.2291 18.5 29.5171 18.5H29.0011V17.756H29.4211C30.3011 17.756 30.7411 17.3 30.7411 16.388V14.66L31.5451 14.24V16.388C31.5451 17.14 31.8371 17.58 32.4211 17.708C32.7171 16.476 33.2331 15.444 33.9691 14.612C34.7931 13.684 35.7611 13.22 36.8731 13.22C37.7691 13.22 38.4811 13.528 39.0091 14.144C39.4571 14.672 39.6811 15.324 39.6811 16.1V16.412C39.6811 17.308 40.1211 17.756 41.0011 17.756ZM37.5931 17.756C38.4491 17.756 38.8771 17.284 38.8771 16.34V16.1C38.8771 15.428 38.6651 14.888 38.2411 14.48C37.8811 14.128 37.4291 13.952 36.8851 13.952C35.9491 13.952 35.1171 14.392 34.3891 15.272C33.8371 15.944 33.4211 16.772 33.1411 17.756H37.5931ZM41.1769 18.5V17.756H41.5129C42.4249 17.756 42.8809 17.284 42.8809 16.34V11.18L43.6849 10.76V16.352C43.6849 17.032 43.4849 17.568 43.0849 17.96C42.7089 18.32 42.2129 18.5 41.5969 18.5H41.1769ZM45.8456 18.5V11.18L46.6496 10.76V18.5H45.8456ZM54.8733 12.92C54.5533 12.92 54.3933 12.752 54.3933 12.416C54.3933 12.096 54.5533 11.936 54.8733 11.936C55.1933 11.936 55.3533 12.096 55.3533 12.416C55.3533 12.752 55.1933 12.92 54.8733 12.92ZM56.2533 12.92C55.9253 12.92 55.7613 12.752 55.7613 12.416C55.7613 12.096 55.9253 11.936 56.2533 11.936C56.5653 11.936 56.7213 12.096 56.7213 12.416C56.7213 12.752 56.5653 12.92 56.2533 12.92ZM53.6373 18.5C53.0453 18.5 52.5733 18.316 52.2213 17.948C51.8693 17.572 51.6933 17.068 51.6933 16.436V14.864L52.4973 14.444V16.34C52.4973 17.284 52.9373 17.756 53.8173 17.756H57.8373C58.7173 17.756 59.1573 17.284 59.1573 16.34V13.784L59.9613 13.364V16.436C59.9613 17.116 59.7533 17.644 59.3373 18.02C58.9773 18.34 58.5053 18.5 57.9213 18.5H53.6373ZM64.151 18.5C63.471 18.5 62.947 18.28 62.579 17.84C62.275 17.464 62.123 16.988 62.123 16.412V11.18L62.927 10.76V16.388C62.927 17.3 63.367 17.756 64.247 17.756H64.667V18.5H64.151ZM67.9189 11.816C67.5909 11.816 67.4269 11.648 67.4269 11.312C67.4269 10.992 67.5909 10.832 67.9189 10.832C68.2309 10.832 68.3869 10.992 68.3869 11.312C68.3869 11.648 68.2309 11.816 67.9189 11.816ZM69.1429 17.756H71.3389V18.5H68.6269C68.3549 18.5 68.1069 18.472 67.8829 18.416C67.6589 18.472 67.4109 18.5 67.1389 18.5H64.4269V17.756H66.6349C66.0029 17.172 65.6869 16.48 65.6869 15.68C65.6869 14.904 65.9029 14.288 66.3349 13.832C66.7269 13.424 67.2429 13.22 67.8829 13.22C68.6109 13.22 69.1749 13.484 69.5749 14.012C69.9109 14.452 70.0789 15.008 70.0789 15.68C70.0789 16.488 69.7669 17.18 69.1429 17.756ZM67.9309 17.648C68.3389 17.504 68.6709 17.248 68.9269 16.88C69.1909 16.504 69.3229 16.1 69.3229 15.668C69.3229 15.14 69.1909 14.724 68.9269 14.42C68.6709 14.108 68.3229 13.952 67.8829 13.952C67.4429 13.952 67.0949 14.108 66.8389 14.42C66.5829 14.724 66.4549 15.136 66.4549 15.656C66.4549 16.096 66.5829 16.504 66.8389 16.88C67.0949 17.248 67.4269 17.504 67.8349 17.648L67.8829 17.66L67.9069 17.648H67.9309ZM74.9228 17.756H75.3428V18.5H74.8268C74.0908 18.5 73.5428 18.248 73.1828 17.744C72.8068 18.248 72.2508 18.5 71.5148 18.5H71.0948V17.756H71.4308C72.3428 17.756 72.7988 17.284 72.7988 16.34V11.18L73.6028 10.76V16.388C73.6028 17.3 74.0428 17.756 74.9228 17.756ZM82.6507 17.756H83.0587V18.5H82.5427C81.8147 18.5 81.2707 18.248 80.9107 17.744C80.5107 18.408 79.9027 18.74 79.0867 18.74C78.2627 18.74 77.6547 18.412 77.2627 17.756C76.8947 18.252 76.3467 18.5 75.6187 18.5H75.1027V17.756H75.5227C76.4027 17.756 76.8427 17.3 76.8427 16.388V15.98C76.8427 15.06 77.0667 14.356 77.5147 13.868C77.9067 13.436 78.4307 13.22 79.0867 13.22C79.8387 13.22 80.4107 13.5 80.8027 14.06C81.1467 14.54 81.3187 15.18 81.3187 15.98V16.388C81.3187 17.3 81.7627 17.756 82.6507 17.756ZM79.0867 17.996C79.5267 17.996 79.8747 17.816 80.1307 17.456C80.3867 17.088 80.5147 16.592 80.5147 15.968C80.5147 14.624 80.0387 13.952 79.0867 13.952C78.1267 13.952 77.6467 14.624 77.6467 15.968C77.6467 17.32 78.1267 17.996 79.0867 17.996ZM82.8136 18.5V17.756H83.1496C84.0616 17.756 84.5176 17.284 84.5176 16.34V11.18L85.3216 10.76V16.352C85.3216 17.032 85.1216 17.568 84.7216 17.96C84.3456 18.32 83.8496 18.5 83.2336 18.5H82.8136ZM87.4823 18.5V11.18L88.2863 10.76V18.5H87.4823ZM94.482 11.72C94.154 11.72 93.99 11.552 93.99 11.216C93.99 10.896 94.154 10.736 94.482 10.736C94.794 10.736 94.95 10.896 94.95 11.216C94.95 11.552 94.794 11.72 94.482 11.72ZM95.85 11.72C95.522 11.72 95.358 11.552 95.358 11.216C95.358 10.896 95.522 10.736 95.85 10.736C96.162 10.736 96.318 10.896 96.318 11.216C96.318 11.552 96.162 11.72 95.85 11.72ZM98.178 17.756H98.586V18.5H98.07C97.214 18.5 96.618 18.164 96.282 17.492C95.866 17.924 95.354 18.14 94.746 18.14C94.058 18.14 93.514 17.88 93.114 17.36C92.778 16.92 92.61 16.372 92.61 15.716C92.61 14.948 92.834 14.332 93.282 13.868C93.674 13.46 94.158 13.256 94.734 13.256C95.254 13.256 95.69 13.408 96.042 13.712V13.064L96.846 12.644V16.388C96.846 17.3 97.29 17.756 98.178 17.756ZM96.042 14.624C95.69 14.2 95.262 13.988 94.758 13.988C94.358 13.988 94.03 14.152 93.774 14.48C93.526 14.8 93.402 15.216 93.402 15.728C93.402 16.248 93.526 16.664 93.774 16.976C94.03 17.288 94.362 17.444 94.77 17.444C95.29 17.444 95.722 17.216 96.066 16.76C96.05 16.616 96.042 16.5 96.042 16.412V14.624ZM105.889 17.756H106.297V18.5H105.781C105.053 18.5 104.509 18.248 104.149 17.744C103.749 18.408 103.141 18.74 102.325 18.74C101.501 18.74 100.893 18.412 100.501 17.756C100.133 18.252 99.5849 18.5 98.8569 18.5H98.3409V17.756H98.7609C99.6409 17.756 100.081 17.3 100.081 16.388V15.98C100.081 15.06 100.305 14.356 100.753 13.868C101.145 13.436 101.669 13.22 102.325 13.22C103.077 13.22 103.649 13.5 104.041 14.06C104.385 14.54 104.557 15.18 104.557 15.98V16.388C104.557 17.3 105.001 17.756 105.889 17.756ZM102.325 17.996C102.765 17.996 103.113 17.816 103.369 17.456C103.625 17.088 103.753 16.592 103.753 15.968C103.753 14.624 103.277 13.952 102.325 13.952C101.365 13.952 100.885 14.624 100.885 15.968C100.885 17.32 101.365 17.996 102.325 17.996ZM106.808 11.756L107.036 11.336H107.348C107.268 11.192 107.228 11.044 107.228 10.892C107.228 10.668 107.312 10.476 107.48 10.316C107.648 10.148 107.848 10.064 108.08 10.064C108.256 10.064 108.428 10.12 108.596 10.232V10.676C108.436 10.564 108.28 10.508 108.128 10.508C108 10.508 107.892 10.552 107.804 10.64C107.716 10.72 107.672 10.816 107.672 10.928C107.672 11.064 107.728 11.2 107.84 11.336H108.896L108.668 11.756H106.808ZM106.052 18.5V17.756H106.472C107.352 17.756 107.792 17.3 107.792 16.388V13.784L108.596 13.364V16.412C108.596 17.084 108.4 17.608 108.008 17.984C107.648 18.328 107.168 18.5 106.568 18.5H106.052ZM112.585 18.5C111.905 18.5 111.381 18.28 111.013 17.84C110.709 17.464 110.557 16.988 110.557 16.412V11.18L111.361 10.76V16.388C111.361 17.3 111.801 17.756 112.681 17.756H113.101V18.5H112.585ZM115.8 11.816C115.472 11.816 115.308 11.648 115.308 11.312C115.308 10.992 115.472 10.832 115.8 10.832C116.112 10.832 116.268 10.992 116.268 11.312C116.268 11.648 116.112 11.816 115.8 11.816ZM117.168 11.816C116.84 11.816 116.676 11.648 116.676 11.312C116.676 10.992 116.84 10.832 117.168 10.832C117.48 10.832 117.636 10.992 117.636 11.312C117.636 11.648 117.48 11.816 117.168 11.816ZM112.86 18.5V17.756H114.9C114.46 17.316 114.24 16.684 114.24 15.86C114.24 14.996 114.464 14.328 114.912 13.856C115.304 13.432 115.824 13.22 116.472 13.22C117.136 13.22 117.648 13.428 118.008 13.844C118.32 14.204 118.476 14.684 118.476 15.284V16.448C118.468 17.096 118.272 17.604 117.888 17.972C117.536 18.324 117.056 18.5 116.448 18.5H112.86ZM117.684 15.356C117.684 14.42 117.28 13.952 116.472 13.952C116.024 13.952 115.672 14.12 115.416 14.456C115.168 14.784 115.044 15.248 115.044 15.848C115.044 16.432 115.164 16.896 115.404 17.24C115.652 17.584 115.98 17.756 116.388 17.756C117.252 17.756 117.684 17.308 117.684 16.412V15.356ZM126.196 11.78C125.868 11.78 125.704 11.612 125.704 11.276C125.704 10.956 125.868 10.796 126.196 10.796C126.508 10.796 126.664 10.956 126.664 11.276C126.664 11.612 126.508 11.78 126.196 11.78ZM126.076 18.2C125.996 18.248 125.864 18.324 125.68 18.428L125.656 18.44C125 18.808 124.56 19.124 124.336 19.388C124.12 19.652 124.012 20.004 124.012 20.444C124.012 20.972 124.192 21.404 124.552 21.74C124.92 22.084 125.392 22.256 125.968 22.256H125.992C126.904 22.256 127.636 22.052 128.188 21.644V22.376C127.532 22.792 126.792 23 125.968 23C125.104 23 124.416 22.716 123.904 22.148C123.48 21.668 123.268 21.092 123.268 20.42C123.268 19.852 123.408 19.396 123.688 19.052C123.968 18.708 124.532 18.3 125.38 17.828C124.684 17.356 123.948 16.568 123.172 15.464V14.972C124.004 13.804 124.984 13.22 126.112 13.22C126.64 13.22 127.164 13.376 127.684 13.688C128.204 14 128.664 14.436 129.064 14.996V15.464C128.512 16.224 127.772 16.964 126.844 17.684C127.052 17.732 127.268 17.756 127.492 17.756H130.396V18.5H127.444C126.972 18.5 126.516 18.4 126.076 18.2ZM123.868 15.236C124.708 16.34 125.448 17.06 126.088 17.396C126.912 16.82 127.672 16.092 128.368 15.212C127.728 14.372 126.976 13.952 126.112 13.952H126.076C125.252 13.952 124.516 14.38 123.868 15.236ZM130.157 18.5V17.756H130.577C131.457 17.756 131.897 17.3 131.897 16.388V13.784L132.701 13.364V16.412C132.701 17.084 132.505 17.608 132.113 17.984C131.753 18.328 131.273 18.5 130.673 18.5H130.157ZM130.553 20.744C130.225 20.744 130.061 20.576 130.061 20.24C130.061 19.92 130.225 19.76 130.553 19.76C130.865 19.76 131.021 19.92 131.021 20.24C131.021 20.576 130.865 20.744 130.553 20.744ZM131.921 20.744C131.593 20.744 131.429 20.576 131.429 20.24C131.429 19.92 131.593 19.76 131.921 19.76C132.233 19.76 132.389 19.92 132.389 20.24C132.389 20.576 132.233 20.744 131.921 20.744ZM138.55 17.756H138.97V18.5H138.454C137.958 18.5 137.546 18.38 137.218 18.14C137.154 19.468 136.618 20.308 135.61 20.66C135.354 20.748 135.082 20.792 134.794 20.792C134.33 20.792 133.882 20.68 133.45 20.456V19.748C133.858 19.972 134.274 20.084 134.698 20.084C135.034 20.084 135.33 20.008 135.586 19.856C136.146 19.52 136.426 18.892 136.426 17.972V13.784L137.218 13.364V13.376L137.23 13.364V16.388C137.23 17.3 137.67 17.756 138.55 17.756ZM142.227 11.816C141.899 11.816 141.735 11.648 141.735 11.312C141.735 10.992 141.899 10.832 142.227 10.832C142.539 10.832 142.695 10.992 142.695 11.312C142.695 11.648 142.539 11.816 142.227 11.816ZM143.451 17.756H145.647V18.5H142.935C142.663 18.5 142.415 18.472 142.191 18.416C141.967 18.472 141.719 18.5 141.447 18.5H138.735V17.756H140.943C140.311 17.172 139.995 16.48 139.995 15.68C139.995 14.904 140.211 14.288 140.643 13.832C141.035 13.424 141.551 13.22 142.191 13.22C142.919 13.22 143.483 13.484 143.883 14.012C144.219 14.452 144.387 15.008 144.387 15.68C144.387 16.488 144.075 17.18 143.451 17.756ZM142.239 17.648C142.647 17.504 142.979 17.248 143.235 16.88C143.499 16.504 143.631 16.1 143.631 15.668C143.631 15.14 143.499 14.724 143.235 14.42C142.979 14.108 142.631 13.952 142.191 13.952C141.751 13.952 141.403 14.108 141.147 14.42C140.891 14.724 140.763 15.136 140.763 15.656C140.763 16.096 140.891 16.504 141.147 16.88C141.403 17.248 141.735 17.504 142.143 17.648L142.191 17.66L142.215 17.648H142.239ZM146.123 11.78C145.795 11.78 145.631 11.612 145.631 11.276C145.631 10.956 145.795 10.796 146.123 10.796C146.435 10.796 146.591 10.956 146.591 11.276C146.591 11.612 146.435 11.78 146.123 11.78ZM147.491 11.78C147.163 11.78 146.999 11.612 146.999 11.276C146.999 10.956 147.163 10.796 147.491 10.796C147.803 10.796 147.959 10.956 147.959 11.276C147.959 11.612 147.803 11.78 147.491 11.78ZM145.403 18.5V17.756H145.823C146.703 17.756 147.143 17.3 147.143 16.388V13.784L147.947 13.364V16.412C147.947 17.084 147.751 17.608 147.359 17.984C146.999 18.328 146.519 18.5 145.919 18.5H145.403Z" fill="#FF6F6F"/>
</g>
</svg>
