<svg width="107" height="33" viewBox="0 0 107 33" fill="none" xmlns="http://www.w3.org/2000/svg">
<rect x="0.5" y="0.5" width="106" height="32" rx="16" stroke="#FF4444"/>
<path d="M17.5133 17.756H17.9213V18.5H17.4053C16.6933 18.5 16.1573 18.26 15.7973 17.78C15.4293 18.252 14.8853 18.492 14.1653 18.5H12.6413C11.7613 18.5 11.3213 18.956 11.3213 19.868V21.86L10.5173 22.28V19.844C10.5173 19.18 10.7133 18.66 11.1053 18.284C11.4573 17.94 11.9253 17.764 12.5093 17.756C12.1333 17.276 11.9453 16.644 11.9453 15.86C11.9453 14.996 12.1693 14.328 12.6173 13.856C13.0093 13.432 13.5293 13.22 14.1773 13.22C14.8413 13.22 15.3533 13.428 15.7133 13.844C16.0253 14.204 16.1813 14.684 16.1813 15.284V16.388C16.1813 17.3 16.6253 17.756 17.5133 17.756ZM15.3773 16.436V15.356C15.3773 14.42 14.9773 13.952 14.1773 13.952C13.7213 13.952 13.3653 14.12 13.1093 14.456C12.8613 14.792 12.7373 15.256 12.7373 15.848C12.7373 16.448 12.8573 16.916 13.0973 17.252C13.3373 17.588 13.6693 17.756 14.0933 17.756C14.9493 17.756 15.3773 17.316 15.3773 16.436ZM24.0528 17.756H24.3528V18.5H23.9568C23.2368 18.5 22.6968 18.256 22.3368 17.768C21.9768 18.256 21.4328 18.5 20.7048 18.5H17.6808V17.756H20.6208C21.4928 17.756 21.9288 17.288 21.9288 16.352V16.232C21.9288 15.576 21.6888 15.084 21.2088 14.756C20.8248 14.484 20.3448 14.348 19.7688 14.348C19.3368 14.348 18.9088 14.424 18.4848 14.576V13.784L21.2088 10.76H22.0368L19.5768 13.544C19.6568 13.536 19.7408 13.532 19.8288 13.532C20.5968 13.532 21.2368 13.728 21.7488 14.12C22.4048 14.624 22.7328 15.324 22.7328 16.22V16.388C22.7328 17.3 23.1728 17.756 24.0528 17.756ZM31.6984 17.756H32.1184V18.5H31.6864C31.0224 18.5 30.4904 18.424 30.0904 18.272C29.6984 18.12 29.3344 17.852 28.9984 17.468C27.9744 18.156 26.7904 18.5 25.4464 18.5H24.1144V17.756H25.4584C27.2024 17.756 28.5624 17.164 29.5384 15.98C28.8264 14.62 27.9664 13.94 26.9584 13.94C26.2704 13.94 25.5984 14.288 24.9424 14.984V14.192C25.5984 13.544 26.2824 13.22 26.9944 13.22H27.0184C28.2744 13.22 29.3624 14.068 30.2824 15.764V16.256C30.0344 16.576 29.7704 16.852 29.4904 17.084C29.7464 17.332 30.0344 17.508 30.3544 17.612C30.6824 17.708 31.1304 17.756 31.6984 17.756ZM33.0959 11.816C32.7759 11.816 32.6159 11.652 32.6159 11.324C32.6159 10.996 32.7759 10.832 33.0959 10.832C33.4159 10.832 33.5759 10.996 33.5759 11.324C33.5759 11.652 33.4159 11.816 33.0959 11.816ZM34.4639 11.816C34.1439 11.816 33.9839 11.652 33.9839 11.324C33.9839 10.996 34.1439 10.832 34.4639 10.832C34.7839 10.832 34.9439 10.996 34.9439 11.324C34.9439 11.652 34.7839 11.816 34.4639 11.816ZM35.7479 17.756H36.1679V18.5H35.6519C34.9319 18.5 34.3919 18.256 34.0319 17.768C33.6559 18.256 33.1119 18.5 32.3999 18.5H31.8839V17.756H32.3039C33.1839 17.756 33.6239 17.3 33.6239 16.388V13.784L34.4279 13.364V16.388C34.4279 17.3 34.8679 17.756 35.7479 17.756ZM35.9269 18.5V17.756H36.2629C37.1749 17.756 37.6309 17.284 37.6309 16.34V11.18L38.4349 10.76V16.352C38.4349 17.032 38.2349 17.568 37.8349 17.96C37.4589 18.32 36.9629 18.5 36.3469 18.5H35.9269ZM40.5956 18.5V11.18L41.3996 10.76V18.5H40.5956ZM47.5953 11.72C47.2673 11.72 47.1033 11.552 47.1033 11.216C47.1033 10.896 47.2673 10.736 47.5953 10.736C47.9073 10.736 48.0633 10.896 48.0633 11.216C48.0633 11.552 47.9073 11.72 47.5953 11.72ZM48.9633 11.72C48.6353 11.72 48.4713 11.552 48.4713 11.216C48.4713 10.896 48.6353 10.736 48.9633 10.736C49.2753 10.736 49.4313 10.896 49.4313 11.216C49.4313 11.552 49.2753 11.72 48.9633 11.72ZM51.2913 17.756H51.6993V18.5H51.1833C50.3273 18.5 49.7313 18.164 49.3953 17.492C48.9793 17.924 48.4673 18.14 47.8593 18.14C47.1713 18.14 46.6273 17.88 46.2273 17.36C45.8913 16.92 45.7233 16.372 45.7233 15.716C45.7233 14.948 45.9473 14.332 46.3953 13.868C46.7873 13.46 47.2713 13.256 47.8473 13.256C48.3673 13.256 48.8033 13.408 49.1553 13.712V13.064L49.9593 12.644V16.388C49.9593 17.3 50.4033 17.756 51.2913 17.756ZM49.1553 14.624C48.8033 14.2 48.3753 13.988 47.8713 13.988C47.4713 13.988 47.1433 14.152 46.8873 14.48C46.6393 14.8 46.5153 15.216 46.5153 15.728C46.5153 16.248 46.6393 16.664 46.8873 16.976C47.1433 17.288 47.4753 17.444 47.8833 17.444C48.4033 17.444 48.8353 17.216 49.1793 16.76C49.1633 16.616 49.1553 16.5 49.1553 16.412V14.624ZM51.4542 18.5V17.756H52.7982C54.5422 17.756 55.9022 17.164 56.8782 15.98C56.1662 14.62 55.3062 13.94 54.2982 13.94C53.6102 13.94 52.9382 14.288 52.2822 14.984V14.192C52.9382 13.544 53.6222 13.22 54.3342 13.22H54.3582C55.6142 13.22 56.7022 14.068 57.6222 15.764V16.256C56.4542 17.752 54.8422 18.5 52.7862 18.5H51.4542ZM64.5668 17.756V18.5H63.2948C63.2868 19.028 63.1148 19.492 62.7788 19.892C62.4508 20.3 62.0228 20.568 61.4948 20.696C61.3028 20.752 61.0948 20.78 60.8708 20.78C60.4068 20.78 59.9548 20.668 59.5148 20.444V19.736C59.9308 19.96 60.3428 20.072 60.7508 20.072C61.0788 20.072 61.3668 20 61.6148 19.856C61.8628 19.728 62.0708 19.532 62.2388 19.268C62.4068 19.012 62.4908 18.756 62.4908 18.5L61.4708 18.464C60.5828 18.424 59.9188 18.144 59.4788 17.624C59.1188 17.184 58.9388 16.596 58.9388 15.86C58.9388 14.996 59.1628 14.328 59.6108 13.856C60.0108 13.432 60.5468 13.22 61.2188 13.22C61.9148 13.22 62.4468 13.428 62.8148 13.844C63.1348 14.204 63.2948 14.684 63.2948 15.284V17.756H64.5668ZM62.4908 15.368C62.4908 14.424 62.0668 13.952 61.2188 13.952C60.7468 13.952 60.3788 14.12 60.1148 14.456C59.8588 14.784 59.7308 15.248 59.7308 15.848C59.7308 17.04 60.3188 17.664 61.4948 17.72C61.8468 17.744 62.1788 17.756 62.4908 17.756V15.368ZM64.3214 18.5V17.756H64.6574C65.5694 17.756 66.0254 17.284 66.0254 16.34V11.18L66.8294 10.76V16.352C66.8294 17.032 66.6294 17.568 66.2294 17.96C65.8534 18.32 65.3574 18.5 64.7414 18.5H64.3214ZM74.669 11.78C74.341 11.78 74.177 11.612 74.177 11.276C74.177 10.956 74.341 10.796 74.669 10.796C74.981 10.796 75.137 10.956 75.137 11.276C75.137 11.612 74.981 11.78 74.669 11.78ZM74.549 18.2C74.469 18.248 74.337 18.324 74.153 18.428L74.129 18.44C73.473 18.808 73.033 19.124 72.809 19.388C72.593 19.652 72.485 20.004 72.485 20.444C72.485 20.972 72.665 21.404 73.025 21.74C73.393 22.084 73.865 22.256 74.441 22.256H74.465C75.377 22.256 76.109 22.052 76.661 21.644V22.376C76.005 22.792 75.265 23 74.441 23C73.577 23 72.889 22.716 72.377 22.148C71.953 21.668 71.741 21.092 71.741 20.42C71.741 19.852 71.881 19.396 72.161 19.052C72.441 18.708 73.005 18.3 73.853 17.828C73.157 17.356 72.421 16.568 71.645 15.464V14.972C72.477 13.804 73.457 13.22 74.585 13.22C75.113 13.22 75.637 13.376 76.157 13.688C76.677 14 77.137 14.436 77.537 14.996V15.464C76.985 16.224 76.245 16.964 75.317 17.684C75.525 17.732 75.741 17.756 75.965 17.756H78.869V18.5H75.917C75.445 18.5 74.989 18.4 74.549 18.2ZM72.341 15.236C73.181 16.34 73.921 17.06 74.561 17.396C75.385 16.82 76.145 16.092 76.841 15.212C76.201 14.372 75.449 13.952 74.585 13.952H74.549C73.725 13.952 72.989 14.38 72.341 15.236ZM78.63 18.5V17.756H79.05C79.93 17.756 80.37 17.3 80.37 16.388V13.784L81.174 13.364V16.412C81.174 17.084 80.978 17.608 80.586 17.984C80.226 18.328 79.746 18.5 79.146 18.5H78.63ZM79.026 20.744C78.698 20.744 78.534 20.576 78.534 20.24C78.534 19.92 78.698 19.76 79.026 19.76C79.338 19.76 79.494 19.92 79.494 20.24C79.494 20.576 79.338 20.744 79.026 20.744ZM80.394 20.744C80.066 20.744 79.902 20.576 79.902 20.24C79.902 19.92 80.066 19.76 80.394 19.76C80.706 19.76 80.862 19.92 80.862 20.24C80.862 20.576 80.706 20.744 80.394 20.744ZM87.0231 17.756H87.4431V18.5H86.9271C86.4311 18.5 86.0191 18.38 85.6911 18.14C85.6271 19.468 85.0911 20.308 84.0831 20.66C83.8271 20.748 83.5551 20.792 83.2671 20.792C82.8031 20.792 82.3551 20.68 81.9231 20.456V19.748C82.3311 19.972 82.7471 20.084 83.1711 20.084C83.5071 20.084 83.8031 20.008 84.0591 19.856C84.6191 19.52 84.8991 18.892 84.8991 17.972V13.784L85.6911 13.364V13.376L85.7031 13.364V16.388C85.7031 17.3 86.1431 17.756 87.0231 17.756ZM90.7001 11.816C90.3721 11.816 90.2081 11.648 90.2081 11.312C90.2081 10.992 90.3721 10.832 90.7001 10.832C91.0121 10.832 91.1681 10.992 91.1681 11.312C91.1681 11.648 91.0121 11.816 90.7001 11.816ZM91.9241 17.756H94.1201V18.5H91.4081C91.1361 18.5 90.8881 18.472 90.6641 18.416C90.4401 18.472 90.1921 18.5 89.9201 18.5H87.2081V17.756H89.4161C88.7841 17.172 88.4681 16.48 88.4681 15.68C88.4681 14.904 88.6841 14.288 89.1161 13.832C89.5081 13.424 90.0241 13.22 90.6641 13.22C91.3921 13.22 91.9561 13.484 92.3561 14.012C92.6921 14.452 92.8601 15.008 92.8601 15.68C92.8601 16.488 92.5481 17.18 91.9241 17.756ZM90.7121 17.648C91.1201 17.504 91.4521 17.248 91.7081 16.88C91.9721 16.504 92.1041 16.1 92.1041 15.668C92.1041 15.14 91.9721 14.724 91.7081 14.42C91.4521 14.108 91.1041 13.952 90.6641 13.952C90.2241 13.952 89.8761 14.108 89.6201 14.42C89.3641 14.724 89.2361 15.136 89.2361 15.656C89.2361 16.096 89.3641 16.504 89.6201 16.88C89.8761 17.248 90.2081 17.504 90.6161 17.648L90.6641 17.66L90.6881 17.648H90.7121ZM94.5961 11.78C94.2681 11.78 94.1041 11.612 94.1041 11.276C94.1041 10.956 94.2681 10.796 94.5961 10.796C94.9081 10.796 95.0641 10.956 95.0641 11.276C95.0641 11.612 94.9081 11.78 94.5961 11.78ZM95.9641 11.78C95.6361 11.78 95.4721 11.612 95.4721 11.276C95.4721 10.956 95.6361 10.796 95.9641 10.796C96.2761 10.796 96.4321 10.956 96.4321 11.276C96.4321 11.612 96.2761 11.78 95.9641 11.78ZM93.8761 18.5V17.756H94.2961C95.1761 17.756 95.6161 17.3 95.6161 16.388V13.784L96.4201 13.364V16.412C96.4201 17.084 96.2241 17.608 95.8321 17.984C95.4721 18.328 94.9921 18.5 94.3921 18.5H93.8761Z" fill="#FF4444"/>
</svg>
