<svg width="21" height="21" viewBox="0 0 21 21" fill="none" xmlns="http://www.w3.org/2000/svg">
<mask id="mask0_39_1984" style="mask-type:alpha" maskUnits="userSpaceOnUse" x="0" y="0" width="21" height="21">
<path d="M0.930664 9.3882C0.930664 5.19599 0.930664 3.09933 2.23357 1.79754C3.53537 0.494629 5.63203 0.494629 9.82424 0.494629H12.0476C16.2398 0.494629 18.3365 0.494629 19.6383 1.79754C20.9412 3.09933 20.9412 5.19599 20.9412 9.3882V11.6116C20.9412 15.8038 20.9412 17.9005 19.6383 19.2023C18.3365 20.5052 16.2398 20.5052 12.0476 20.5052H9.82424C5.63203 20.5052 3.53537 20.5052 2.23357 19.2023C0.930664 17.9005 0.930664 15.8038 0.930664 11.6116V9.3882Z" fill="black"/>
</mask>
<g mask="url(#mask0_39_1984)">
<path d="M11.7019 13.3576L10.0377 11.5422C8.62583 10.0025 7.92101 9.23214 7.00275 9.19101C6.0856 9.14876 5.31297 9.85136 3.76771 11.2565L1.63214 13.1987C1.29975 13.4999 1.1341 13.6511 1.03961 13.8468C1.03009 13.8673 1.02119 13.888 1.01293 13.909C0.930664 14.1092 0.930664 14.3348 0.930664 14.7828C0.930664 18.8617 0.930664 20.9005 2.13463 22.1834C2.25581 22.3124 2.38365 22.4335 2.51928 22.5469C3.86666 23.6775 5.90328 23.5652 9.97432 23.3385L13.6563 23.1339C16.5578 22.9727 18.0097 22.8916 19.048 22.1623C19.5382 21.8177 19.954 21.3797 20.2709 20.8716C20.9412 19.7933 20.9412 18.3392 20.9412 15.4332V15.2175C20.9412 14.7639 20.9412 14.5372 20.899 14.3226C20.8414 14.0365 20.7281 13.7645 20.5655 13.5222C20.4454 13.3387 20.2842 13.1787 19.9651 12.8585C19.2314 12.1259 18.8646 11.7601 18.4566 11.5912C17.912 11.3657 17.3002 11.3657 16.7557 11.5912C16.3466 11.7601 15.9808 12.1259 15.2482 12.8585L14.6846 13.4221C14.0265 14.0802 13.6963 14.4104 13.2972 14.4471C13.2128 14.4549 13.1277 14.4531 13.0437 14.4416C12.6457 14.3871 12.3311 14.0447 11.7019 13.3576Z" fill="#AE76DA"/>
</g>
<path d="M4.26563 6.05323C5.49358 6.05323 6.48902 5.05778 6.48902 3.82984C6.48902 2.60189 5.49358 1.60645 4.26563 1.60645C3.03768 1.60645 2.04224 2.60189 2.04224 3.82984C2.04224 5.05778 3.03768 6.05323 4.26563 6.05323Z" fill="#AE76DA"/>
</svg>
