<svg width="52" height="47" viewBox="0 0 52 47" fill="none" xmlns="http://www.w3.org/2000/svg">
<path fill-rule="evenodd" clip-rule="evenodd" d="M10.8845 0.746194C9.82175 1.22857 9.37231 1.9256 9.06864 3.56268L8.86301 4.67123H7.36973C6.41203 4.67123 5.72559 4.73451 5.45577 4.84745C4.83221 5.10878 4.20839 5.6824 3.90863 6.27001C3.50613 7.05881 -0.0284359 24.8366 0.0808508 25.522C0.247265 26.5658 0.992271 27.5425 1.90474 27.9132C2.11651 27.9992 5.84886 28.8056 10.1988 29.705C14.5487 30.6045 18.2155 31.3858 18.3474 31.4414C18.5499 31.5267 18.097 32.0942 15.4377 35.0868C13.3226 37.4671 12.1321 38.7053 11.8131 38.8567C11.5518 38.9806 10.9787 39.1269 10.5396 39.1817C9.11021 39.3601 8.16872 39.9595 7.48123 41.1289C7.17076 41.6569 7.12671 41.8702 7.12671 42.8432C7.12671 43.8193 7.17024 44.0284 7.48529 44.5643C7.94453 45.3455 8.76013 46.0419 9.51833 46.3003C10.2687 46.556 12.2046 46.569 12.8948 46.3228C13.1736 46.2235 15.2546 45.2877 17.5194 44.2434C22.0945 42.1334 22.4113 42.0109 24.0128 41.7317C25.43 41.4845 26.3417 41.4845 27.7589 41.7317C29.374 42.0134 29.6687 42.1282 34.5791 44.3904L39.0238 46.4381L40.2935 46.4829C42.2866 46.5531 43.4432 46.0012 44.2743 44.5831C44.7945 43.6955 44.8566 42.3352 44.4203 41.387C43.8183 40.0792 42.7967 39.3606 41.2657 39.1685C40.7232 39.1003 40.1584 38.9347 39.8693 38.7589C39.6022 38.5967 37.9984 36.9049 36.3051 34.9996C33.8388 32.2244 33.27 31.5164 33.4452 31.4401C33.5656 31.3878 37.2525 30.6019 41.6383 29.6936C46.0242 28.7854 49.8185 27.9365 50.0701 27.8072C50.9247 27.3682 51.5341 26.5091 51.6911 25.522C51.8001 24.8363 48.2652 7.05829 47.8631 6.27001C47.7172 5.98398 47.4117 5.59324 47.1841 5.40186C46.4676 4.79895 45.9777 4.67123 44.3818 4.67123H42.9087L42.7031 3.56268C42.3994 1.9256 41.95 1.22857 40.8872 0.746194C40.0326 0.358331 39.2093 0.418726 37.4423 0.998887C33.6623 2.24013 30.5301 3.71406 27.2245 5.80685L25.8832 6.65604L24.6753 5.88215C22.0846 4.22219 19.7736 3.05272 16.735 1.86351C13.2091 0.483567 11.98 0.248913 10.8845 0.746194ZM14.1574 3.21495C17.4629 4.32965 20.8741 5.97784 23.8269 7.88656L24.7093 8.45705V15.6636C24.7093 21.3801 24.6756 22.8552 24.5459 22.7981C19.4761 20.5621 15.5441 19.547 10.5288 19.1794C9.45219 19.1005 8.5626 19.0245 8.55201 19.0108C8.54142 18.9969 9.16459 15.3728 9.93666 10.9571C11.4075 2.54511 11.3987 2.57962 12.0455 2.57962C12.171 2.57962 13.1214 2.86552 14.1574 3.21495ZM40.1944 2.75519C40.3922 2.8999 40.6818 4.3486 41.8344 10.9582C42.6042 15.3734 43.2275 18.996 43.2194 19.0086C43.2113 19.0213 42.2697 19.097 41.1269 19.1768C36.6209 19.492 32.307 20.5515 28.337 22.3183L26.9317 22.9437L26.9332 15.7356L26.9349 8.52764L27.4234 8.20867C30.7583 6.0317 33.9135 4.48351 37.5858 3.22266C39.58 2.53792 39.8348 2.4923 40.1944 2.75519ZM8.44651 7.12234C8.11905 8.72308 6.40771 18.827 6.40771 19.1597C6.40771 19.7799 6.85192 20.5498 7.40816 20.8936C7.82099 21.1487 8.16023 21.2099 9.66723 21.3005C14.7308 21.6052 19.465 22.7868 23.5328 24.761C25.6987 25.8122 25.9368 25.8327 27.4017 25.0932C31.7978 22.8739 36.6008 21.6237 41.9737 21.3005C43.4808 21.2099 43.82 21.1487 44.2328 20.8936C44.7931 20.5474 45.2333 19.7788 45.2333 19.1472C45.2333 18.8019 43.5111 8.63863 43.1956 7.12234L43.1209 6.76285H44.1031C45.3534 6.76285 45.6925 6.89279 45.8737 7.4417C46.0796 8.06579 49.4165 24.7961 49.4165 25.2047C49.4165 25.3928 49.3135 25.6395 49.1877 25.7527C49.043 25.8831 46.4133 26.4905 42.0305 27.4061C38.2198 28.2021 33.0314 29.2868 30.5006 29.8163L25.8993 30.779L17.2319 28.9677C12.465 27.9715 7.24397 26.8798 5.62977 26.5417C2.5568 25.898 2.22449 25.7613 2.22449 25.1404C2.22449 24.7673 5.57094 8.07468 5.77291 7.44014C5.94795 6.89017 6.22823 6.78141 7.49653 6.77108L8.52011 6.76285L8.44651 7.12234ZM13.9644 7.81388C13.6319 8.14645 13.5802 8.27979 13.6481 8.63092C13.7633 9.2269 14.0332 9.39958 15.7078 9.94837C16.5245 10.216 18.1437 10.9029 19.3062 11.4749C21.6302 12.6184 22.0523 12.7109 22.4774 12.1703C22.8482 11.6992 22.8246 11.1411 22.4169 10.7334C21.6783 9.99478 15.6721 7.41648 14.6901 7.41648C14.4987 7.41648 14.1962 7.5821 13.9644 7.81388ZM35.6903 7.79558C33.286 8.59405 29.9284 10.162 29.3174 10.7716C28.7291 11.3584 29.1743 12.5148 29.9884 12.5148C30.1662 12.5148 31.0072 12.1609 31.8571 11.7285C33.514 10.8854 35.5094 10.0735 36.8394 9.70104C38.121 9.34206 38.5763 8.46045 37.8531 7.73741C37.4415 7.32575 37.0752 7.33556 35.6903 7.79558ZM12.7479 13.3229C12.4722 13.6507 12.415 13.824 12.4781 14.1396C12.5982 14.7405 12.9052 14.9467 14.049 15.1949C15.4322 15.4949 17.548 16.2031 19.0107 16.8557C20.5717 17.552 21.0595 17.6145 21.4995 17.1745C21.8509 16.8231 21.9273 16.3335 21.6979 15.9049C21.4324 15.4088 18.3068 14.1019 15.6343 13.3697C13.5026 12.7856 13.2041 12.7808 12.7479 13.3229ZM36.4746 13.2338C33.7018 14.0017 30.3461 15.396 30.0816 15.8902C29.848 16.3267 29.9168 16.8191 30.2593 17.1614C30.659 17.5613 31.2019 17.5766 31.9233 17.2086C32.8463 16.7377 35.3071 15.8369 36.6707 15.4707C37.3897 15.2777 38.1983 15.0608 38.4674 14.9888C39.3246 14.7595 39.583 13.793 38.9552 13.1651C38.6115 12.8215 37.8918 12.8413 36.4746 13.2338ZM23.7593 32.5429L25.8815 32.9645L28.1386 32.5242C29.3801 32.2821 30.4603 32.0606 30.5392 32.0321C30.618 32.0036 32.2423 33.7348 34.1488 35.879C36.0551 38.0233 37.8407 39.9758 38.1167 40.218C38.8008 40.8187 39.5505 41.1267 40.6712 41.2675C41.789 41.4078 42.2191 41.6802 42.4777 42.4118C42.6475 42.8923 42.6414 42.9796 42.4057 43.4338C42.0226 44.1718 41.4387 44.4438 40.3964 44.3691C39.643 44.3151 39.1241 44.1122 35.821 42.5805C31.1886 40.4323 30.5299 40.1561 29.2225 39.8136C27.7588 39.43 25.0389 39.3402 23.5235 39.6253C21.8437 39.9413 20.9762 40.279 16.4082 42.3942C12.6007 44.1575 12.1487 44.3358 11.3753 44.3794C10.3314 44.4383 9.74371 44.1617 9.36604 43.4338C9.13034 42.9796 9.1242 42.8923 9.29401 42.4118C9.55337 41.678 9.98202 41.4079 11.1117 41.2661C12.9095 41.0403 13.1738 40.8233 17.3739 36.1238C20.4907 32.6365 21.129 31.9838 21.361 32.0465C21.5129 32.0877 22.5922 32.311 23.7593 32.5429Z" fill="url(#paint0_linear_36_68)"/>
<defs>
<linearGradient id="paint0_linear_36_68" x1="25.886" y1="0.5" x2="26" y2="46.5" gradientUnits="userSpaceOnUse">
<stop stop-color="#CB89FE"/>
<stop offset="1" stop-color="#FF4444"/>
</linearGradient>
</defs>
</svg>
