<svg width="123" height="123" viewBox="0 0 123 123" fill="none" xmlns="http://www.w3.org/2000/svg">
<g opacity="0.5">
<mask id="mask0_36_10" style="mask-type:alpha" maskUnits="userSpaceOnUse" x="15" y="15" width="93" height="93">
<path d="M15.375 56.375C15.375 37.0486 15.375 27.3829 21.3815 21.3815C27.3829 15.375 37.0486 15.375 56.375 15.375H66.625C85.9514 15.375 95.6171 15.375 101.618 21.3815C107.625 27.3829 107.625 37.0486 107.625 56.375V66.625C107.625 85.9514 107.625 95.6171 101.618 101.618C95.6171 107.625 85.9514 107.625 66.625 107.625H56.375C37.0486 107.625 27.3829 107.625 21.3815 101.618C15.375 95.6171 15.375 85.9514 15.375 66.625V56.375Z" fill="black"/>
</mask>
<g mask="url(#mask0_36_10)">
<path d="M65.0311 74.6715L57.359 66.3024C50.8503 59.2043 47.601 55.6526 43.3678 55.463C39.1396 55.2683 35.5777 58.5073 28.454 64.9853L18.6089 73.9386C17.0765 75.3275 16.3129 76.0245 15.8773 76.9265C15.8333 77.0209 15.7923 77.1166 15.7542 77.2135C15.375 78.136 15.375 79.1764 15.375 81.2418C15.375 100.045 15.375 109.445 20.9254 115.359C21.484 115.953 22.0734 116.512 22.6986 117.035C28.9101 122.247 38.2991 121.729 57.0669 120.684L74.0409 119.741C87.4171 118.998 94.1104 118.624 98.8971 115.262C101.157 113.673 103.074 111.654 104.535 109.311C107.625 104.34 107.625 97.6366 107.625 84.2399V83.2456C107.625 81.1546 107.625 80.1091 107.43 79.12C107.165 77.801 106.642 76.5472 105.893 75.43C105.339 74.5844 104.596 73.8464 103.125 72.3704C99.7428 68.993 98.0515 67.3069 96.1706 66.5279C93.6602 65.4886 90.8398 65.4886 88.3294 66.5279C86.4434 67.3069 84.7572 68.993 81.3799 72.3704L78.7815 74.9688C75.7475 78.0028 74.2254 79.5249 72.3855 79.694C71.9963 79.7301 71.6042 79.7215 71.217 79.6684C69.3822 79.4173 67.9319 77.8388 65.0311 74.6715Z" fill="url(#paint0_linear_36_10)"/>
</g>
<path d="M30.75 41C36.4109 41 41 36.4109 41 30.75C41 25.0891 36.4109 20.5 30.75 20.5C25.0891 20.5 20.5 25.0891 20.5 30.75C20.5 36.4109 25.0891 41 30.75 41Z" fill="url(#paint1_linear_36_10)"/>
<path d="M102.5 20.5001V17.4251H105.575V20.5001H102.5ZM73.923 53.4231C73.3401 53.9663 72.5691 54.262 71.7725 54.2479C70.9758 54.2339 70.2158 53.9111 69.6524 53.3478C69.089 52.7844 68.7662 52.0243 68.7522 51.2276C68.7381 50.431 69.0338 49.66 69.577 49.0771L73.923 53.4231ZM99.425 46.1251V20.5001H105.575V46.1251H99.425ZM102.5 23.5751H76.875V17.4251H102.5V23.5751ZM104.673 22.6731L73.923 53.4231L69.577 49.0771L100.327 18.3271L104.673 22.6731Z" fill="url(#paint2_linear_36_10)"/>
</g>
<rect x="2" y="84" width="38.1904" height="36.4545" rx="6.94371" fill="#211427"/>
<path d="M11.5178 103.945C11.5178 103.6 11.655 103.269 11.8992 103.024C12.1433 102.78 12.4745 102.643 12.8198 102.643H18.8834V96.5795C18.8834 96.2342 19.0205 95.9031 19.2647 95.6589C19.5089 95.4148 19.84 95.2776 20.1853 95.2776C20.5306 95.2776 20.8618 95.4148 21.1059 95.6589C21.3501 95.9031 21.4873 96.2342 21.4873 96.5795V102.643H27.5509C27.8962 102.643 28.2273 102.78 28.4715 103.024C28.7156 103.269 28.8528 103.6 28.8528 103.945C28.8528 104.29 28.7156 104.622 28.4715 104.866C28.2273 105.11 27.8962 105.247 27.5509 105.247H21.4873V111.311C21.4873 111.656 21.3501 111.987 21.1059 112.231C20.8618 112.475 20.5306 112.613 20.1853 112.613C19.84 112.613 19.5089 112.475 19.2647 112.231C19.0205 111.987 18.8834 111.656 18.8834 111.311V105.247H12.8198C12.4745 105.247 12.1433 105.11 11.8992 104.866C11.655 104.622 11.5178 104.29 11.5178 103.945Z" fill="#E33A3A"/>
<path fill-rule="evenodd" clip-rule="evenodd" d="M12.0562 89.657C17.4592 89.058 22.9118 89.058 28.3149 89.657C31.4864 90.0111 34.0469 92.5091 34.4184 95.698C35.0607 101.178 35.0607 106.714 34.4184 112.195C34.0452 115.383 31.4847 117.88 28.3149 118.236C22.9118 118.835 17.4592 118.835 12.0562 118.236C8.88461 117.88 6.32412 115.383 5.95263 112.195C5.31169 106.714 5.31169 101.178 5.95263 95.698C6.32412 92.5091 8.88635 90.0111 12.0562 89.657ZM28.0267 92.2435C22.8152 91.6659 17.5558 91.6659 12.3443 92.2435C11.3796 92.3506 10.4791 92.7797 9.7883 93.4617C9.09754 94.1436 8.65685 95.0385 8.53743 96.0018C7.92004 101.281 7.92004 106.614 8.53743 111.892C8.65721 112.855 9.09806 113.75 9.78879 114.432C10.4795 115.113 11.3798 115.542 12.3443 115.649C17.5122 116.225 22.8588 116.225 28.0267 115.649C28.9909 115.542 29.8908 115.113 30.5812 114.431C31.2716 113.75 31.7122 112.855 31.8319 111.892C32.4493 106.614 32.4493 101.281 31.8319 96.0018C31.7118 95.0394 31.271 94.1455 30.5807 93.4643C29.8903 92.783 28.9906 92.3542 28.0267 92.247" fill="#E33A3A"/>
<defs>
<linearGradient id="paint0_linear_36_10" x1="61.5" y1="55.4547" x2="61.5" y2="121.365" gradientUnits="userSpaceOnUse">
<stop stop-color="#AE76DA"/>
<stop offset="1" stop-color="#FF4444"/>
</linearGradient>
<linearGradient id="paint1_linear_36_10" x1="30.75" y1="20.5" x2="30.75" y2="41" gradientUnits="userSpaceOnUse">
<stop stop-color="#AE76DA"/>
<stop offset="1" stop-color="#FF4444"/>
</linearGradient>
<linearGradient id="paint2_linear_36_10" x1="87.1634" y1="17.4251" x2="87.1634" y2="54.2484" gradientUnits="userSpaceOnUse">
<stop stop-color="#AE76DA"/>
<stop offset="1" stop-color="#FF4444"/>
</linearGradient>
</defs>
</svg>
