<svg width="111" height="107" viewBox="0 0 111 107" fill="none" xmlns="http://www.w3.org/2000/svg">
<g opacity="0.5">
<path d="M88.3889 53.2765L108.499 58.3059V48.2496L88.3889 43.2227V83.443V53.2765ZM78.3327 73.3891C76.9991 73.3684 75.6748 73.6132 74.4367 74.1093C73.1987 74.6053 72.0717 75.3427 71.1213 76.2784C70.171 77.2142 69.4162 78.3296 68.9011 79.5598C68.3859 80.79 68.1206 82.1104 68.1206 83.4442C68.1206 84.7779 68.3859 86.0983 68.9011 87.3285C69.4162 88.5587 70.171 89.6741 71.1213 90.6099C72.0717 91.5456 73.1987 92.283 74.4367 92.779C75.6748 93.2751 76.9991 93.5199 78.3327 93.4992C80.9725 93.4583 83.4903 92.381 85.3426 90.4997C87.1949 88.6185 88.2332 86.0843 88.2332 83.4442C88.2332 80.804 87.1949 78.2698 85.3426 76.3886C83.4903 74.5073 80.9725 73.43 78.3327 73.3891Z" stroke="url(#paint0_linear_36_24)" stroke-width="5" stroke-linecap="round" stroke-linejoin="round"/>
<path d="M48.1664 93.4993H23.0269C21.6937 93.4993 20.4151 92.9697 19.4724 92.0269C18.5296 91.0842 18 89.8056 18 88.4724V8.02693C18 6.69371 18.5296 5.41509 19.4724 4.47236C20.4151 3.52962 21.6937 3 23.0269 3H83.3598C84.0201 2.99968 84.6741 3.12948 85.2843 3.38196C85.8944 3.63445 86.4489 4.00468 86.9159 4.4715C87.383 4.93833 87.7535 5.4926 88.0063 6.10265C88.259 6.71271 88.3891 7.36659 88.3891 8.02693V23.1101" stroke="url(#paint1_linear_36_24)" stroke-width="5" stroke-linecap="round" stroke-linejoin="round"/>
<path d="M53.1936 53.2765C57.1939 53.2765 61.0304 51.6874 63.859 48.8588C66.6877 46.0301 68.2768 42.1936 68.2768 38.1933C68.2768 34.193 66.6877 30.3565 63.859 27.5279C61.0304 24.6992 57.1939 23.1101 53.1936 23.1101C49.1933 23.1101 45.3568 24.6992 42.5281 27.5279C39.6995 30.3565 38.1104 34.193 38.1104 38.1933C38.1104 42.1936 39.6995 46.0301 42.5281 48.8588C45.3568 51.6874 49.1933 53.2765 53.1936 53.2765Z" stroke="url(#paint2_linear_36_24)" stroke-width="5" stroke-linecap="round" stroke-linejoin="round"/>
</g>
<rect y="70" width="38.1904" height="36.4545" rx="6.94371" fill="#211427"/>
<path d="M9.51782 89.9451C9.51782 89.5998 9.65499 89.2686 9.89915 89.0245C10.1433 88.7803 10.4745 88.6431 10.8198 88.6431H16.8834V82.5795C16.8834 82.2342 17.0205 81.9031 17.2647 81.6589C17.5089 81.4148 17.84 81.2776 18.1853 81.2776C18.5306 81.2776 18.8618 81.4148 19.1059 81.6589C19.3501 81.9031 19.4873 82.2342 19.4873 82.5795V88.6431H25.5509C25.8962 88.6431 26.2273 88.7803 26.4715 89.0245C26.7156 89.2686 26.8528 89.5998 26.8528 89.9451C26.8528 90.2904 26.7156 90.6215 26.4715 90.8657C26.2273 91.1099 25.8962 91.247 25.5509 91.247H19.4873V97.3106C19.4873 97.6559 19.3501 97.9871 19.1059 98.2312C18.8618 98.4754 18.5306 98.6126 18.1853 98.6126C17.84 98.6126 17.5089 98.4754 17.2647 98.2312C17.0205 97.9871 16.8834 97.6559 16.8834 97.3106V91.247H10.8198C10.4745 91.247 10.1433 91.1099 9.89915 90.8657C9.65499 90.6215 9.51782 90.2904 9.51782 89.9451Z" fill="#E33A3A"/>
<path fill-rule="evenodd" clip-rule="evenodd" d="M10.0562 75.657C15.4592 75.058 20.9118 75.058 26.3149 75.657C29.4864 76.0111 32.0469 78.5091 32.4184 81.698C33.0607 87.1783 33.0607 92.7142 32.4184 98.1946C32.0452 101.383 29.4847 103.88 26.3149 104.236C20.9118 104.835 15.4592 104.835 10.0562 104.236C6.88461 103.88 4.32412 101.383 3.95263 98.1946C3.31169 92.7144 3.31169 87.1782 3.95263 81.698C4.32412 78.5091 6.88635 76.0111 10.0562 75.657ZM26.0267 78.2435C20.8152 77.6659 15.5558 77.6659 10.3443 78.2435C9.37956 78.3506 8.47907 78.7797 7.7883 79.4617C7.09754 80.1436 6.65685 81.0385 6.53743 82.0018C5.92004 87.2807 5.92004 92.6136 6.53743 97.8925C6.65721 98.8555 7.09806 99.75 7.78879 100.432C8.47953 101.113 9.37982 101.542 10.3443 101.649C15.5122 102.225 20.8588 102.225 26.0267 101.649C26.9909 101.542 27.8908 101.113 28.5812 100.431C29.2716 99.7495 29.7122 98.8552 29.8319 97.8925C30.4493 92.6136 30.4493 87.2807 29.8319 82.0018C29.7118 81.0394 29.271 80.1455 28.5807 79.4643C27.8903 78.783 26.9906 78.3542 26.0267 78.247" fill="#E33A3A"/>
<defs>
<linearGradient id="paint0_linear_36_24" x1="88.3099" y1="43.2227" x2="88.3099" y2="93.5004" gradientUnits="userSpaceOnUse">
<stop stop-color="#FF4444"/>
<stop offset="1" stop-color="#AE76DA"/>
</linearGradient>
<linearGradient id="paint1_linear_36_24" x1="53.1946" y1="3" x2="53.1946" y2="93.4993" gradientUnits="userSpaceOnUse">
<stop stop-color="#FF4444"/>
<stop offset="1" stop-color="#AE76DA"/>
</linearGradient>
<linearGradient id="paint2_linear_36_24" x1="53.1936" y1="23.1101" x2="53.1936" y2="53.2765" gradientUnits="userSpaceOnUse">
<stop stop-color="#FF4444"/>
<stop offset="1" stop-color="#AE76DA"/>
</linearGradient>
</defs>
</svg>
