<svg width="21" height="21" viewBox="0 0 21 21" fill="none" xmlns="http://www.w3.org/2000/svg">
<path d="M15.7037 11.5589L19.9411 12.6187V10.4997L15.7037 9.44043V17.9154V11.5589ZM13.5847 15.7969C13.3037 15.7925 13.0246 15.8441 12.7637 15.9486C12.5029 16.0532 12.2654 16.2085 12.0651 16.4057C11.8649 16.6029 11.7059 16.8379 11.5973 17.0971C11.4888 17.3564 11.4329 17.6346 11.4329 17.9156C11.4329 18.1966 11.4888 18.4749 11.5973 18.7341C11.7059 18.9933 11.8649 19.2283 12.0651 19.4255C12.2654 19.6227 12.5029 19.7781 12.7637 19.8826C13.0246 19.9871 13.3037 20.0387 13.5847 20.0343C14.1409 20.0257 14.6714 19.7987 15.0618 19.4023C15.4521 19.0059 15.6708 18.4719 15.6708 17.9156C15.6708 17.3593 15.4521 16.8253 15.0618 16.4289C14.6714 16.0325 14.1409 15.8055 13.5847 15.7969Z" stroke="#AE76DA" stroke-width="1.32353" stroke-linecap="round" stroke-linejoin="round"/>
<path d="M7.22827 20.0344H1.93106C1.65014 20.0344 1.38072 19.9228 1.18207 19.7242C0.983424 19.5255 0.871826 19.2561 0.871826 18.9752V2.02433C0.871826 1.7434 0.983424 1.47398 1.18207 1.27533C1.38072 1.07669 1.65014 0.965088 1.93106 0.965088H14.644C14.7831 0.965021 14.9209 0.99237 15.0495 1.04557C15.178 1.09877 15.2949 1.17679 15.3933 1.27515C15.4917 1.37352 15.5698 1.49031 15.623 1.61886C15.6763 1.7474 15.7037 1.88518 15.7037 2.02433V5.20255" stroke="#AE76DA" stroke-width="1.32353" stroke-linecap="round" stroke-linejoin="round"/>
<path d="M8.2876 11.5588C9.13052 11.5588 9.93891 11.224 10.5349 10.628C11.131 10.0319 11.4658 9.22353 11.4658 8.38062C11.4658 7.5377 11.131 6.7293 10.5349 6.13327C9.93891 5.53724 9.13052 5.20239 8.2876 5.20239C7.44468 5.20239 6.63629 5.53724 6.04025 6.13327C5.44422 6.7293 5.10938 7.5377 5.10938 8.38062C5.10938 9.22353 5.44422 10.0319 6.04025 10.628C6.63629 11.224 7.44468 11.5588 8.2876 11.5588Z" stroke="#AE76DA" stroke-width="1.32353" stroke-linecap="round" stroke-linejoin="round"/>
</svg>
