<svg width="40" height="39" viewBox="0 0 40 39" fill="none" xmlns="http://www.w3.org/2000/svg">
<rect x="0.933838" width="38.1323" height="38.1323" rx="19.0662" fill="#FFEDED"/>
<path d="M20.372 20.0362H16.19C15.7457 20.0352 15.306 20.1254 14.8979 20.3011C14.4899 20.4768 14.1222 20.7343 13.8176 21.0578C13.513 21.3812 13.278 21.7636 13.1271 22.1815C12.9761 22.5993 12.9125 23.0437 12.9401 23.4871C12.9677 23.9305 13.086 24.3636 13.2876 24.7595C13.4892 25.1554 13.7698 25.5057 14.1122 25.7889C14.4545 26.072 14.8513 26.282 15.278 26.4057C15.7047 26.5294 16.1523 26.5643 16.593 26.5082L17.15 26.4382C18.0393 26.3271 18.8574 25.8951 19.4507 25.2234C20.044 24.5517 20.3716 23.6864 20.372 22.7902V13.4262C20.372 11.8072 20.372 10.9982 20.846 10.4392C21.32 9.87922 22.118 9.74622 23.714 9.47922L26.072 9.08622C26.208 9.06422 26.276 9.05222 26.312 9.09222C26.349 9.13222 26.332 9.19822 26.299 9.33222L25.404 12.9132C25.389 12.9732 25.381 13.0032 25.36 13.0232C25.34 13.0432 25.31 13.0492 25.249 13.0612L20.372 14.0362" stroke="#A04AE4" stroke-width="2"/>
<circle cx="21.4338" cy="25.5659" r="3.5" fill="#FFEDED"/>
<path d="M23.1838 23.8159C23.2501 23.8159 23.3137 23.8423 23.3606 23.8891C23.4075 23.936 23.4338 23.9996 23.4338 24.0659C23.4338 24.1322 23.4075 24.1958 23.3606 24.2427C23.3137 24.2896 23.2501 24.3159 23.1838 24.3159H22.9338L22.9331 24.3337L22.6998 27.6014C22.6909 27.7276 22.6344 27.8456 22.5419 27.9318C22.4493 28.018 22.3276 28.0659 22.2011 28.0659H20.1663C20.0399 28.0659 19.9181 28.018 19.8256 27.9318C19.733 27.8456 19.6766 27.7276 19.6676 27.6014L19.4343 24.3339L19.4338 24.3159H19.1838C19.1175 24.3159 19.0539 24.2896 19.0071 24.2427C18.9602 24.1958 18.9338 24.1322 18.9338 24.0659C18.9338 23.9996 18.9602 23.936 19.0071 23.8891C19.0539 23.8423 19.1175 23.8159 19.1838 23.8159H23.1838ZM22.4331 24.3159H19.9346L20.1666 27.5659H22.2011L22.4331 24.3159ZM21.6838 23.0659C21.7501 23.0659 21.8137 23.0923 21.8606 23.1391C21.9075 23.186 21.9338 23.2496 21.9338 23.3159C21.9338 23.3822 21.9075 23.4458 21.8606 23.4927C21.8137 23.5396 21.7501 23.5659 21.6838 23.5659H20.6838C20.6175 23.5659 20.5539 23.5396 20.5071 23.4927C20.4602 23.4458 20.4338 23.3822 20.4338 23.3159C20.4338 23.2496 20.4602 23.186 20.5071 23.1391C20.5539 23.0923 20.6175 23.0659 20.6838 23.0659H21.6838Z" fill="#FF4444"/>
</svg>
