<svg width="32" height="32" viewBox="0 0 32 32" fill="none" xmlns="http://www.w3.org/2000/svg">
<path d="M12.1894 28.7807C9.98412 28.1222 7.98687 26.904 6.39208 25.2447C6.9052 24.6361 7.22506 23.8882 7.31074 23.0968C7.39642 22.3054 7.24402 21.5064 6.87304 20.8021C6.50207 20.0978 5.92938 19.5202 5.22828 19.1433C4.52717 18.7663 3.72953 18.6071 2.93742 18.686C2.75696 17.8021 2.66628 16.9021 2.66675 16C2.66675 14.6067 2.88008 13.2627 3.27742 12H3.33342C4.01325 12.0002 4.68193 11.8271 5.27631 11.4972C5.87068 11.1672 6.37114 10.6911 6.73044 10.114C7.08973 9.53684 7.296 8.87765 7.32976 8.19865C7.36353 7.51965 7.22368 6.84325 6.92342 6.23332C8.48648 4.77787 10.3768 3.71987 12.4348 3.14865C12.7697 3.80625 13.28 4.35838 13.9092 4.74395C14.5385 5.12952 15.2621 5.3335 16.0001 5.33332C16.7381 5.3335 17.4617 5.12952 18.0909 4.74395C18.7202 4.35838 19.2305 3.80625 19.5654 3.14865C21.6234 3.71987 23.5137 4.77787 25.0768 6.23332C24.7743 6.84753 24.6346 7.52908 24.6709 8.21275C24.7073 8.89643 24.9185 9.55933 25.2843 10.138C25.6502 10.7167 26.1585 11.1918 26.7605 11.5178C27.3626 11.8438 28.0382 12.0098 28.7228 12C29.1287 13.2945 29.3346 14.6433 29.3334 16C29.3334 16.92 29.2401 17.8187 29.0628 18.6867C28.2706 18.6077 27.473 18.7669 26.7719 19.1439C26.0708 19.5209 25.4981 20.0985 25.1271 20.8028C24.7561 21.5071 24.6037 22.3061 24.6894 23.0975C24.7751 23.8889 25.095 24.6367 25.6081 25.2453C24.0132 26.9044 22.016 28.1224 19.8107 28.7807C19.5518 27.9735 19.0432 27.2694 18.3584 26.7699C17.6735 26.2704 16.8477 26.0013 16.0001 26.0013C15.1524 26.0013 14.3266 26.2704 13.6418 26.7699C12.9569 27.2694 12.4484 27.9735 12.1894 28.7807Z" stroke="#AE76DA" stroke-width="2.66667" stroke-linejoin="round"/>
<path d="M16.0002 20.6666C16.613 20.6666 17.2198 20.5459 17.786 20.3114C18.3522 20.0769 18.8667 19.7331 19.3 19.2998C19.7333 18.8664 20.0771 18.352 20.3116 17.7858C20.5461 17.2196 20.6668 16.6128 20.6668 15.9999C20.6668 15.3871 20.5461 14.7803 20.3116 14.2141C20.0771 13.6479 19.7333 13.1335 19.3 12.7001C18.8667 12.2668 18.3522 11.923 17.786 11.6885C17.2198 11.454 16.613 11.3333 16.0002 11.3333C14.7625 11.3333 13.5755 11.8249 12.7003 12.7001C11.8252 13.5753 11.3335 14.7623 11.3335 15.9999C11.3335 17.2376 11.8252 18.4246 12.7003 19.2998C13.5755 20.1749 14.7625 20.6666 16.0002 20.6666Z" stroke="#AE76DA" stroke-width="2.66667" stroke-linejoin="round"/>
</svg>
