<svg width="563" height="214" viewBox="0 0 563 214" fill="none" xmlns="http://www.w3.org/2000/svg">
<path d="M36.4974 20.734C35.984 20.734 35.718 20.468 35.6994 19.936C35.6994 19.6747 35.7787 19.46 35.9374 19.292C36.1054 19.1147 36.32 19.026 36.5814 19.026C37.16 19.026 37.4494 19.3807 37.4494 20.09V21.896L36.8614 22.064L36.8474 20.734H36.4974ZM38.6954 20.734C38.182 20.734 37.916 20.468 37.8974 19.936C37.8974 19.6747 37.9767 19.46 38.1354 19.292C38.3034 19.1147 38.518 19.026 38.7794 19.026C39.358 19.026 39.6474 19.3807 39.6474 20.09V21.896L39.0594 22.064L39.0454 20.734H38.6954ZM43.1069 20.09C42.6496 20.09 42.4209 19.8567 42.4209 19.39C42.4209 18.9327 42.6496 18.704 43.1069 18.704C43.5549 18.704 43.7789 18.9327 43.7789 19.39C43.7789 19.8567 43.5549 20.09 43.1069 20.09ZM44.8849 20.09C44.4276 20.09 44.1989 19.8567 44.1989 19.39C44.1989 18.9327 44.4276 18.704 44.8849 18.704C45.3329 18.704 45.5569 18.9327 45.5569 19.39C45.5569 19.8567 45.3329 20.09 44.8849 20.09ZM47.4889 26.866H48.4129V28H47.3489C46.3876 28 45.6969 27.6453 45.2769 26.936C44.8289 27.3653 44.2736 27.58 43.6109 27.58C42.7896 27.58 42.1362 27.272 41.6509 26.656C41.2496 26.1333 41.0489 25.494 41.0489 24.738C41.0489 23.8327 41.3242 23.1047 41.8749 22.554C42.3416 22.078 42.9109 21.84 43.5829 21.84C44.0962 21.84 44.5396 21.9707 44.9129 22.232V21.63L46.1309 20.986V25.466C46.1309 26.3993 46.5836 26.866 47.4889 26.866ZM44.9129 23.534C44.5676 23.1513 44.1429 22.96 43.6389 22.96C43.2282 22.96 42.8922 23.128 42.6309 23.464C42.3696 23.7907 42.2389 24.22 42.2389 24.752C42.2389 25.2933 42.3696 25.7273 42.6309 26.054C42.8922 26.3807 43.2329 26.544 43.6529 26.544C44.1756 26.544 44.6049 26.3293 44.9409 25.9C44.9222 25.732 44.9129 25.6013 44.9129 25.508V23.534ZM52.45 26.866H53.374V28H52.31C51.5354 28 50.924 27.7527 50.476 27.258C50.028 27.7527 49.4167 28 48.642 28H47.578V26.866H48.502C49.4167 26.866 49.874 26.3993 49.874 25.466V22.568L51.078 21.924V25.466C51.078 26.3993 51.5354 26.866 52.45 26.866ZM49.104 29.4C49.552 29.4 49.776 29.6333 49.776 30.1C49.776 30.5573 49.552 30.786 49.104 30.786C48.6467 30.786 48.418 30.5573 48.418 30.1C48.418 29.6333 48.6467 29.4 49.104 29.4ZM50.882 29.4C51.33 29.4 51.554 29.6333 51.554 30.1C51.554 30.5573 51.33 30.786 50.882 30.786C50.4247 30.786 50.196 30.5573 50.196 30.1C50.196 29.6333 50.4247 29.4 50.882 29.4ZM55.3833 20.23C54.9259 20.23 54.6973 19.9967 54.6973 19.53C54.6973 19.0727 54.9259 18.844 55.3833 18.844C55.8313 18.844 56.0553 19.0727 56.0553 19.53C56.0553 19.9967 55.8313 20.23 55.3833 20.23ZM52.5273 28V26.866H53.4513C54.3659 26.866 54.8233 26.3993 54.8233 25.466V22.568L56.0273 21.924V25.508C56.0273 26.3013 55.7893 26.9267 55.3133 27.384C54.8746 27.7947 54.3006 28 53.5913 28H52.5273ZM60.9772 28C60.1653 28 59.5399 27.7387 59.1013 27.216C58.7279 26.768 58.5413 26.1987 58.5413 25.508V19.614L59.7453 18.97V25.466C59.7453 26.3993 60.2026 26.866 61.1173 26.866H62.0413V28H60.9772ZM63.6872 18.662C63.2579 18.662 63.0432 18.4427 63.0432 18.004C63.0432 17.5747 63.2579 17.36 63.6872 17.36C64.1166 17.36 64.3312 17.5747 64.3312 18.004C64.3312 18.4427 64.1166 18.662 63.6872 18.662ZM62.8052 20.328C62.3479 20.328 62.1192 20.0947 62.1192 19.628C62.1192 19.1707 62.3479 18.942 62.8052 18.942C63.2532 18.942 63.4772 19.1707 63.4772 19.628C63.4772 20.0947 63.2532 20.328 62.8052 20.328ZM63.8972 19.628C63.8972 19.1707 64.1259 18.942 64.5832 18.942C65.0312 18.942 65.2552 19.1707 65.2552 19.628C65.2552 20.0947 65.0312 20.328 64.5832 20.328C64.1259 20.328 63.8972 20.0947 63.8972 19.628ZM66.0672 26.866H66.9912V28H65.9272C65.1526 28 64.5412 27.7527 64.0932 27.258C63.6452 27.7527 63.0339 28 62.2592 28H61.1952V26.866H62.1192C63.0339 26.866 63.4912 26.3993 63.4912 25.466V22.568L64.6952 21.924V25.466C64.6952 26.3993 65.1526 26.866 66.0672 26.866ZM66.1445 28V26.866H66.8865C67.8571 26.866 68.3425 26.3573 68.3425 25.34V19.614L69.5605 18.97V25.354C69.5605 26.1847 69.3131 26.8427 68.8185 27.328C68.3518 27.776 67.7405 28 66.9845 28H66.1445ZM74.5124 28C73.7004 28 73.0751 27.7387 72.6364 27.216C72.2631 26.768 72.0764 26.1987 72.0764 25.508V19.614L73.2804 18.97V25.466C73.2804 26.3993 73.7377 26.866 74.6524 26.866H75.5764V28H74.5124ZM74.7304 28V26.866H75.6544C76.5691 26.866 77.0264 26.3993 77.0264 25.466V22.568L78.2304 21.924V25.508C78.2304 26.3013 77.9924 26.9267 77.5164 27.384C77.0777 27.7947 76.5037 28 75.7944 28H74.7304ZM76.9844 30.786C76.5271 30.786 76.2984 30.5527 76.2984 30.086C76.2984 29.6287 76.5271 29.4 76.9844 29.4C77.4324 29.4 77.6564 29.6287 77.6564 30.086C77.6564 30.5527 77.4324 30.786 76.9844 30.786ZM81.4164 20.468C81.9297 20.468 82.1957 20.734 82.2144 21.266C82.2144 21.5273 82.1304 21.7467 81.9624 21.924C81.8037 22.092 81.5937 22.176 81.3324 22.176C80.7537 22.176 80.4644 21.8213 80.4644 21.112V19.306L81.0524 19.138L81.0664 20.468H81.4164ZM83.5864 20.468C84.0997 20.468 84.3657 20.734 84.3844 21.266C84.3844 21.5273 84.3004 21.7467 84.1324 21.924C83.9737 22.092 83.7637 22.176 83.5024 22.176C82.9237 22.176 82.6344 21.8213 82.6344 21.112V19.306L83.2224 19.138L83.2364 20.468H83.5864ZM93.7745 16.7C93.1212 16.7 92.7945 16.3667 92.7945 15.7C92.7945 15.0467 93.1212 14.72 93.7745 14.72C94.4145 14.72 94.7345 15.0467 94.7345 15.7C94.7345 16.3667 94.4145 16.7 93.7745 16.7ZM96.3345 16.7C95.6812 16.7 95.3545 16.3667 95.3545 15.7C95.3545 15.0467 95.6812 14.72 96.3345 14.72C96.9745 14.72 97.2945 15.0467 97.2945 15.7C97.2945 16.3667 96.9745 16.7 96.3345 16.7ZM95.0745 28C93.8612 28 92.9145 27.5933 92.2345 26.78C91.6479 26.0733 91.3545 25.1733 91.3545 24.08C91.3545 22.8933 91.6812 21.8667 92.3345 21C93.0012 20.12 93.9479 19.4733 95.1745 19.06C96.4679 19.5 97.4412 20.1933 98.0945 21.14C98.6812 21.98 98.9745 22.96 98.9745 24.08C98.9745 25.3467 98.6012 26.34 97.8545 27.06C97.1879 27.6867 96.3279 28 95.2745 28H95.0745ZM95.0145 26.38H95.3145C95.9145 26.38 96.3879 26.1733 96.7345 25.76C97.0945 25.3467 97.2745 24.7933 97.2745 24.1C97.2745 22.5 96.5745 21.3533 95.1745 20.66C93.7745 21.3533 93.0745 22.4933 93.0745 24.08C93.0745 24.7867 93.2479 25.3467 93.5945 25.76C93.9412 26.1733 94.4145 26.38 95.0145 26.38ZM100.524 28L101.364 26.38H104.924C105.458 26.38 105.831 26.2467 106.044 25.98C106.271 25.7133 106.384 25.2533 106.384 24.6C106.384 22.8267 105.564 21.4933 103.924 20.6L104.804 19.12C106.898 20.3467 107.991 22.04 108.084 24.2C108.111 24.9733 108.284 25.5333 108.604 25.88C108.938 26.2133 109.464 26.38 110.184 26.38H111.364V28H110.044C108.938 28 108.071 27.6467 107.444 26.94C107.004 27.6467 106.264 28 105.224 28H100.524ZM110.173 28V26.38H112.913C115.62 26.38 117.76 25.4867 119.333 23.7C118.227 21.66 116.88 20.64 115.293 20.64C114.213 20.64 113.1 21.2133 111.953 22.36V20.76C113.073 19.6267 114.26 19.06 115.513 19.06C116.54 19.06 117.533 19.4333 118.493 20.18C119.453 20.9133 120.3 21.9667 121.033 23.34V24.22C119.073 26.74 116.36 28 112.893 28H110.173ZM123.843 28V16.02L125.563 15.1V28H123.843ZM138.495 26.38V28H136.015C135.962 29.1467 135.469 30.0933 134.535 30.84C133.749 31.4533 132.855 31.76 131.855 31.76C131.029 31.76 130.249 31.5667 129.515 31.18V29.66C130.222 30.0333 130.922 30.22 131.615 30.22C132.322 30.22 132.935 30 133.455 29.56C133.989 29.12 134.262 28.5933 134.275 27.98C133.582 27.9533 133.069 27.9267 132.735 27.9C131.295 27.82 130.209 27.3333 129.475 26.44C128.862 25.6933 128.555 24.7267 128.555 23.54C128.555 22.0867 128.942 20.9533 129.715 20.14C130.409 19.42 131.322 19.06 132.455 19.06C133.642 19.06 134.555 19.4133 135.195 20.12C135.742 20.7467 136.015 21.5667 136.015 22.58V26.38H138.495ZM134.275 22.7C134.275 21.34 133.669 20.66 132.455 20.66C131.762 20.66 131.222 20.9133 130.835 21.42C130.449 21.9133 130.255 22.6067 130.255 23.5C130.255 25.2467 131.109 26.1733 132.815 26.28C133.135 26.32 133.622 26.3533 134.275 26.38V22.7ZM137.302 28V26.38H138.362C139.749 26.38 140.442 25.6533 140.442 24.2V16.02L142.182 15.1V24.22C142.182 25.4067 141.829 26.3467 141.122 27.04C140.456 27.68 139.582 28 138.502 28H137.302ZM145.777 28V16.02L147.497 15.1V28H145.777ZM157.497 16.7C156.844 16.7 156.517 16.3667 156.517 15.7C156.517 15.0467 156.844 14.72 157.497 14.72C158.137 14.72 158.457 15.0467 158.457 15.7C158.457 16.3667 158.137 16.7 157.497 16.7ZM160.037 16.7C159.384 16.7 159.057 16.3667 159.057 15.7C159.057 15.0467 159.384 14.72 160.037 14.72C160.677 14.72 160.997 15.0467 160.997 15.7C160.997 16.3667 160.677 16.7 160.037 16.7ZM163.757 26.38H165.077V28H163.557C162.184 28 161.197 27.4933 160.597 26.48C159.957 27.0933 159.164 27.4 158.217 27.4C157.044 27.4 156.11 26.96 155.417 26.08C154.844 25.3333 154.557 24.42 154.557 23.34C154.557 22.0467 154.95 21.0067 155.737 20.22C156.404 19.54 157.217 19.2 158.177 19.2C158.91 19.2 159.544 19.3867 160.077 19.76V18.9L161.817 17.98V24.38C161.817 25.7133 162.464 26.38 163.757 26.38ZM160.077 21.62C159.584 21.0733 158.977 20.8 158.257 20.8C157.67 20.8 157.19 21.04 156.817 21.52C156.444 21.9867 156.257 22.6 156.257 23.36C156.257 24.1333 156.444 24.7533 156.817 25.22C157.19 25.6867 157.677 25.92 158.277 25.92C159.024 25.92 159.637 25.6133 160.117 25C160.09 24.76 160.077 24.5733 160.077 24.44V21.62ZM163.884 28V26.38H165.204C166.511 26.38 167.164 25.7133 167.164 24.38V20.24L168.884 19.32V24.44C168.884 25.5733 168.544 26.4667 167.864 27.12C167.238 27.7067 166.418 28 165.404 28H163.884ZM164.944 31.98C164.291 31.98 163.964 31.6467 163.964 30.98C163.964 30.3267 164.291 30 164.944 30C165.584 30 165.904 30.3267 165.904 30.98C165.904 31.6467 165.584 31.98 164.944 31.98ZM167.484 31.98C166.831 31.98 166.504 31.6467 166.504 30.98C166.504 30.3267 166.831 30 167.484 30C168.124 30 168.444 30.3267 168.444 30.98C168.444 31.6467 168.124 31.98 167.484 31.98ZM177.936 15.62C177.469 16.3133 176.976 16.66 176.456 16.66C176.149 16.66 175.769 16.52 175.316 16.24C174.982 16.0267 174.736 15.92 174.576 15.92C174.349 15.92 174.069 16.1333 173.736 16.56L173.076 16.06C173.556 15.38 174.056 15.04 174.576 15.04C174.842 15.04 175.189 15.1733 175.616 15.44C175.962 15.6533 176.236 15.76 176.436 15.76C176.649 15.76 176.942 15.5467 177.316 15.12L177.936 15.62ZM179.896 16.02L181.636 15.1V24.22C181.636 25.4067 181.282 26.3467 180.576 27.04C179.909 27.68 179.036 28 177.956 28H171.076L171.916 26.38H174.836V18.62L176.556 17.7V26.38H177.816C179.202 26.38 179.896 25.6533 179.896 24.2V16.02ZM185.23 28V16.02L186.95 15.1V28H185.23ZM198.17 26.94C198.17 28.4333 197.777 29.6333 196.99 30.54C196.243 31.4067 195.25 31.84 194.01 31.84C193.21 31.84 192.43 31.64 191.67 31.24V29.74C192.35 30.1133 193.03 30.3 193.71 30.3C194.563 30.3 195.23 30.0133 195.71 29.44C196.19 28.8667 196.43 28.0733 196.43 27.06V20.24L198.17 19.32V26.94ZM201.773 28V16.02L203.493 15.1V28H201.773ZM213.294 26.38H214.614V28H213.094C212.414 28 211.827 27.8667 211.334 27.6C211.214 28.92 210.754 29.9733 209.954 30.76C209.22 31.48 208.3 31.84 207.194 31.84C206.394 31.84 205.614 31.64 204.854 31.24V29.74C205.534 30.1133 206.214 30.3 206.894 30.3C207.747 30.3 208.414 30.0133 208.894 29.44C209.374 28.8667 209.614 28.0733 209.614 27.06V20.24L211.334 19.32V19.34L211.354 19.32V24.78C211.474 25.8467 212.12 26.38 213.294 26.38ZM224.356 26.38H225.496V28H224.176C223.056 28 222.182 27.6533 221.556 26.96C220.929 27.6533 220.056 28 218.936 28H213.416V26.38H218.776C220.056 26.38 220.696 25.7067 220.696 24.36V24.18C220.696 23.18 220.309 22.42 219.536 21.9C218.922 21.4733 218.169 21.26 217.276 21.26C216.569 21.26 215.862 21.3933 215.156 21.66V19.96L219.536 15.1H221.296L217.356 19.54C217.369 19.54 217.389 19.54 217.416 19.54C217.442 19.54 217.462 19.54 217.476 19.54C218.996 19.54 220.222 20 221.156 20.92C221.996 21.7733 222.416 22.8533 222.416 24.16V24.38C222.416 25.7133 223.062 26.38 224.356 26.38ZM225.835 16.9C225.181 16.9 224.855 16.5667 224.855 15.9C224.855 15.2467 225.181 14.92 225.835 14.92C226.475 14.92 226.795 15.2467 226.795 15.9C226.795 16.5667 226.475 16.9 225.835 16.9ZM228.375 16.9C227.721 16.9 227.395 16.5667 227.395 15.9C227.395 15.2467 227.721 14.92 228.375 14.92C229.015 14.92 229.335 15.2467 229.335 15.9C229.335 16.5667 229.015 16.9 228.375 16.9ZM224.295 28V26.38H225.615C226.921 26.38 227.575 25.7133 227.575 24.38V20.24L229.295 19.32V24.44C229.295 25.5733 228.955 26.4667 228.275 27.12C227.648 27.7067 226.828 28 225.815 28H224.295ZM242.194 18.98C241.541 18.98 241.214 18.6467 241.214 17.98C241.214 17.3267 241.541 17 242.194 17C242.834 17 243.154 17.3267 243.154 17.98C243.154 18.6467 242.834 18.98 242.194 18.98ZM249.494 26.38H250.814V28H249.294C248.601 28 248.001 27.86 247.494 27.58C247.334 28.94 246.741 30 245.714 30.76C244.794 31.4533 243.654 31.8 242.294 31.8C240.561 31.8 239.214 31.1867 238.254 29.96C237.521 29.0133 237.154 27.8933 237.154 26.6C237.154 25.48 237.434 24.52 237.994 23.72L239.654 23.36C239.054 24.3067 238.754 25.3267 238.754 26.42C238.754 27.54 239.101 28.46 239.794 29.18C240.447 29.8467 241.281 30.18 242.294 30.18C243.467 30.18 244.374 29.84 245.014 29.16C245.547 28.5867 245.814 27.84 245.814 26.92V20.24L247.534 19.32V24.38C247.534 25.7133 248.187 26.38 249.494 26.38ZM256.567 26.38H257.887V28H256.367C255.26 28 254.387 27.6467 253.747 26.94C253.107 27.6467 252.234 28 251.127 28H249.607V26.38H250.927C252.234 26.38 252.887 25.7133 252.887 24.38V20.24L254.607 19.32V24.38C254.607 25.7133 255.26 26.38 256.567 26.38ZM251.787 30C252.427 30 252.747 30.3333 252.747 31C252.747 31.6533 252.427 31.98 251.787 31.98C251.134 31.98 250.807 31.6533 250.807 31C250.807 30.3333 251.134 30 251.787 30ZM254.327 30C254.967 30 255.287 30.3333 255.287 31C255.287 31.6533 254.967 31.98 254.327 31.98C253.674 31.98 253.347 31.6533 253.347 31C253.347 30.3333 253.674 30 254.327 30ZM256.677 28V26.38H257.997C259.304 26.38 259.957 25.7133 259.957 24.38V20.24L261.677 19.32V24.44C261.677 25.5733 261.337 26.4667 260.657 27.12C260.031 27.7067 259.211 28 258.197 28H256.677ZM259.897 31.98C259.244 31.98 258.917 31.6467 258.917 30.98C258.917 30.3267 259.244 30 259.897 30C260.537 30 260.857 30.3267 260.857 30.98C260.857 31.6467 260.537 31.98 259.897 31.98ZM271.677 16.7C271.023 16.7 270.697 16.3667 270.697 15.7C270.697 15.0467 271.023 14.72 271.677 14.72C272.317 14.72 272.637 15.0467 272.637 15.7C272.637 16.3667 272.317 16.7 271.677 16.7ZM274.217 16.7C273.563 16.7 273.237 16.3667 273.237 15.7C273.237 15.0467 273.563 14.72 274.217 14.72C274.857 14.72 275.177 15.0467 275.177 15.7C275.177 16.3667 274.857 16.7 274.217 16.7ZM277.937 26.38H279.257V28H277.737C276.363 28 275.377 27.4933 274.777 26.48C274.137 27.0933 273.343 27.4 272.397 27.4C271.223 27.4 270.29 26.96 269.597 26.08C269.023 25.3333 268.737 24.42 268.737 23.34C268.737 22.0467 269.13 21.0067 269.917 20.22C270.583 19.54 271.397 19.2 272.357 19.2C273.09 19.2 273.723 19.3867 274.257 19.76V18.9L275.997 17.98V24.38C275.997 25.7133 276.643 26.38 277.937 26.38ZM274.257 21.62C273.763 21.0733 273.157 20.8 272.437 20.8C271.85 20.8 271.37 21.04 270.997 21.52C270.623 21.9867 270.437 22.6 270.437 23.36C270.437 24.1333 270.623 24.7533 270.997 25.22C271.37 25.6867 271.857 25.92 272.457 25.92C273.203 25.92 273.817 25.6133 274.297 25C274.27 24.76 274.257 24.5733 274.257 24.44V21.62ZM285.024 26.38H286.344V28H284.824C283.717 28 282.844 27.6467 282.204 26.94C281.564 27.6467 280.691 28 279.584 28H278.064V26.38H279.384C280.691 26.38 281.344 25.7133 281.344 24.38V20.24L283.064 19.32V24.38C283.064 25.7133 283.717 26.38 285.024 26.38ZM280.244 30C280.884 30 281.204 30.3333 281.204 31C281.204 31.6533 280.884 31.98 280.244 31.98C279.591 31.98 279.264 31.6533 279.264 31C279.264 30.3333 279.591 30 280.244 30ZM282.784 30C283.424 30 283.744 30.3333 283.744 31C283.744 31.6533 283.424 31.98 282.784 31.98C282.131 31.98 281.804 31.6533 281.804 31C281.804 30.3333 282.131 30 282.784 30ZM288.934 16.9C288.281 16.9 287.954 16.5667 287.954 15.9C287.954 15.2467 288.281 14.92 288.934 14.92C289.574 14.92 289.894 15.2467 289.894 15.9C289.894 16.5667 289.574 16.9 288.934 16.9ZM292.094 26.38H293.414V28H291.894C290.788 28 289.914 27.6467 289.274 26.94C288.634 27.6467 287.761 28 286.654 28H285.134V26.38H286.454C287.761 26.38 288.414 25.7133 288.414 24.38V20.24L290.134 19.32V24.38C290.134 25.7133 290.788 26.38 292.094 26.38ZM295.485 22.58C295.485 21.42 295.831 20.52 296.525 19.88C297.138 19.3333 297.938 19.06 298.925 19.06C300.191 19.06 301.165 19.5267 301.845 20.46C302.431 21.2467 302.725 22.2733 302.725 23.54C302.725 24.98 302.351 26.1067 301.605 26.92C300.951 27.64 300.098 28 299.045 28C297.845 28 296.931 27.6667 296.305 27C295.665 27.6667 294.805 28 293.725 28H292.205V26.38H293.525C294.831 26.38 295.485 25.7133 295.485 24.38V22.58ZM297.205 24.52C297.205 25.76 297.811 26.38 299.025 26.38C299.651 26.38 300.138 26.1267 300.485 25.62C300.845 25.1133 301.025 24.4067 301.025 23.5C301.025 22.6067 300.838 21.9133 300.465 21.42C300.091 20.9133 299.578 20.66 298.925 20.66C297.778 20.66 297.205 21.3267 297.205 22.66V24.52ZM307.83 16.9C307.177 16.9 306.85 16.5667 306.85 15.9C306.85 15.2467 307.177 14.92 307.83 14.92C308.47 14.92 308.79 15.2467 308.79 15.9C308.79 16.5667 308.47 16.9 307.83 16.9ZM310.93 26.38H312.25V28H310.73C310.05 28 309.464 27.8667 308.97 27.6C308.85 28.92 308.39 29.9733 307.59 30.76C306.857 31.48 305.937 31.84 304.83 31.84C304.03 31.84 303.25 31.64 302.49 31.24V29.74C303.17 30.1133 303.85 30.3 304.53 30.3C305.384 30.3 306.05 30.0133 306.53 29.44C307.01 28.8667 307.25 28.0733 307.25 27.06V20.24L308.97 19.32V19.34L308.99 19.32V24.78C309.11 25.8467 309.757 26.38 310.93 26.38ZM311.052 28V26.38H312.112C313.499 26.38 314.192 25.6533 314.192 24.2V16.02L315.932 15.1V24.22C315.932 25.4067 315.579 26.3467 314.872 27.04C314.206 27.68 313.332 28 312.252 28H311.052ZM319.527 28V16.02L321.247 15.1V28H319.527ZM331.587 16.7C330.934 16.7 330.607 16.3667 330.607 15.7C330.607 15.0467 330.934 14.72 331.587 14.72C332.227 14.72 332.547 15.0467 332.547 15.7C332.547 16.3667 332.227 16.7 331.587 16.7ZM334.147 16.7C333.494 16.7 333.167 16.3667 333.167 15.7C333.167 15.0467 333.494 14.72 334.147 14.72C334.787 14.72 335.107 15.0467 335.107 15.7C335.107 16.3667 334.787 16.7 334.147 16.7ZM332.887 28C331.674 28 330.727 27.5933 330.047 26.78C329.46 26.0733 329.167 25.1733 329.167 24.08C329.167 22.8933 329.494 21.8667 330.147 21C330.814 20.12 331.76 19.4733 332.987 19.06C334.28 19.5 335.254 20.1933 335.907 21.14C336.494 21.98 336.787 22.96 336.787 24.08C336.787 25.3467 336.414 26.34 335.667 27.06C335 27.6867 334.14 28 333.087 28H332.887ZM332.827 26.38H333.127C333.727 26.38 334.2 26.1733 334.547 25.76C334.907 25.3467 335.087 24.7933 335.087 24.1C335.087 22.5 334.387 21.3533 332.987 20.66C331.587 21.3533 330.887 22.4933 330.887 24.08C330.887 24.7867 331.06 25.3467 331.407 25.76C331.754 26.1733 332.227 26.38 332.827 26.38ZM338.337 28L339.177 26.38H342.737C343.27 26.38 343.643 26.2467 343.857 25.98C344.083 25.7133 344.197 25.2533 344.197 24.6C344.197 22.8267 343.377 21.4933 341.737 20.6L342.617 19.12C344.71 20.3467 345.803 22.04 345.897 24.2C345.923 24.9733 346.097 25.5333 346.417 25.88C346.75 26.2133 347.277 26.38 347.997 26.38H349.177V28H347.857C346.75 28 345.883 27.6467 345.257 26.94C344.817 27.6467 344.077 28 343.037 28H338.337ZM360.866 26.38H362.206V28H360.686C359.579 28 358.706 27.6467 358.066 26.94C357.386 27.9133 356.393 28.4 355.086 28.4C353.779 28.4 352.793 27.92 352.126 26.96C351.499 27.6533 350.626 28 349.506 28H347.986V26.38H349.306C350.613 26.38 351.266 25.7133 351.266 24.38V23.72C351.266 22.1733 351.646 20.9867 352.406 20.16C353.073 19.4267 353.966 19.06 355.086 19.06C356.366 19.06 357.353 19.5333 358.046 20.48C358.633 21.2933 358.926 22.3733 358.926 23.72V24.38C358.926 25.7133 359.573 26.38 360.866 26.38ZM355.086 26.78C355.739 26.78 356.253 26.5067 356.626 25.96C357.013 25.4133 357.206 24.66 357.206 23.7C357.206 21.6733 356.499 20.66 355.086 20.66C353.686 20.66 352.986 21.6733 352.986 23.7C352.986 25.7533 353.686 26.78 355.086 26.78ZM361.013 28V26.38H362.073C363.46 26.38 364.153 25.6533 364.153 24.2V16.02L365.893 15.1V24.22C365.893 25.4067 365.54 26.3467 364.833 27.04C364.167 27.68 363.293 28 362.213 28H361.013ZM369.488 28V16.02L371.208 15.1V28H369.488Z" fill="white"/>
<rect x="223.5" y="66.5" width="149" height="51" rx="4.5" stroke="#CE90FF"/>
<path d="M291.172 87.76V86.432H294.18V98H292.708V87.76H291.172ZM296.649 89.344C296.723 88.3627 297.102 87.5947 297.785 87.04C298.467 86.4853 299.353 86.208 300.441 86.208C301.166 86.208 301.79 86.3413 302.313 86.608C302.846 86.864 303.246 87.216 303.513 87.664C303.79 88.112 303.929 88.6187 303.929 89.184C303.929 89.8453 303.737 90.416 303.353 90.896C302.979 91.376 302.489 91.6853 301.881 91.824V91.904C302.574 92.0747 303.123 92.4107 303.529 92.912C303.934 93.4133 304.137 94.0693 304.137 94.88C304.137 95.488 303.998 96.0373 303.721 96.528C303.443 97.008 303.027 97.3867 302.473 97.664C301.918 97.9413 301.251 98.08 300.473 98.08C299.342 98.08 298.414 97.7867 297.689 97.2C296.963 96.6027 296.558 95.76 296.473 94.672H297.881C297.955 95.312 298.217 95.8347 298.665 96.24C299.113 96.6453 299.71 96.848 300.457 96.848C301.203 96.848 301.769 96.656 302.153 96.272C302.547 95.8773 302.745 95.3707 302.745 94.752C302.745 93.952 302.478 93.376 301.945 93.024C301.411 92.672 300.606 92.496 299.529 92.496H299.161V91.28H299.545C300.526 91.2693 301.267 91.1093 301.769 90.8C302.27 90.48 302.521 89.9893 302.521 89.328C302.521 88.7627 302.334 88.3093 301.961 87.968C301.598 87.6267 301.075 87.456 300.393 87.456C299.731 87.456 299.198 87.6267 298.793 87.968C298.387 88.3093 298.147 88.768 298.073 89.344H296.649Z" fill="white"/>
<rect x="343.564" y="71" width="24.4364" height="19.8545" rx="3.81818" fill="#FF4444"/>
<path d="M351.2 83.2183L355.782 78.6364L360.364 83.2183" stroke="white" stroke-width="1.5"/>
<rect x="368" y="113" width="24.4364" height="19.8545" rx="3.81818" transform="rotate(-180 368 113)" fill="#F4A0A0"/>
<path d="M360.364 100.782L355.782 105.364L351.2 100.782" stroke="#1F1F1F" stroke-width="1.5"/>
<path d="M437.575 16.7C436.922 16.7 436.595 16.3667 436.595 15.7C436.595 15.0467 436.922 14.72 437.575 14.72C438.215 14.72 438.535 15.0467 438.535 15.7C438.535 16.3667 438.215 16.7 437.575 16.7ZM440.115 16.7C439.462 16.7 439.135 16.3667 439.135 15.7C439.135 15.0467 439.462 14.72 440.115 14.72C440.755 14.72 441.075 15.0467 441.075 15.7C441.075 16.3667 440.755 16.7 440.115 16.7ZM443.835 26.38H445.155V28H443.635C442.262 28 441.275 27.4933 440.675 26.48C440.035 27.0933 439.242 27.4 438.295 27.4C437.122 27.4 436.188 26.96 435.495 26.08C434.922 25.3333 434.635 24.42 434.635 23.34C434.635 22.0467 435.028 21.0067 435.815 20.22C436.482 19.54 437.295 19.2 438.255 19.2C438.988 19.2 439.622 19.3867 440.155 19.76V18.9L441.895 17.98V24.38C441.895 25.7133 442.542 26.38 443.835 26.38ZM440.155 21.62C439.662 21.0733 439.055 20.8 438.335 20.8C437.748 20.8 437.268 21.04 436.895 21.52C436.522 21.9867 436.335 22.6 436.335 23.36C436.335 24.1333 436.522 24.7533 436.895 25.22C437.268 25.6867 437.755 25.92 438.355 25.92C439.102 25.92 439.715 25.6133 440.195 25C440.168 24.76 440.155 24.5733 440.155 24.44V21.62ZM443.962 28V26.38H445.283C446.589 26.38 447.243 25.7133 447.243 24.38V20.24L448.963 19.32V24.44C448.963 25.5733 448.623 26.4667 447.943 27.12C447.316 27.7067 446.496 28 445.483 28H443.962ZM445.023 31.98C444.369 31.98 444.042 31.6467 444.042 30.98C444.042 30.3267 444.369 30 445.023 30C445.663 30 445.983 30.3267 445.983 30.98C445.983 31.6467 445.663 31.98 445.023 31.98ZM447.563 31.98C446.909 31.98 446.583 31.6467 446.583 30.98C446.583 30.3267 446.909 30 447.563 30C448.203 30 448.523 30.3267 448.523 30.98C448.523 31.6467 448.203 31.98 447.563 31.98ZM455.914 12.96C455.447 13.6533 454.954 14 454.434 14C454.127 14 453.747 13.86 453.294 13.58C452.961 13.3667 452.714 13.26 452.554 13.26C452.327 13.26 452.047 13.4733 451.714 13.9L451.054 13.4C451.534 12.72 452.034 12.38 452.554 12.38C452.821 12.38 453.167 12.5133 453.594 12.78C453.941 12.9933 454.214 13.1 454.414 13.1C454.627 13.1 454.921 12.8867 455.294 12.46L455.914 12.96ZM452.554 28V16.02L454.274 15.1V28H452.554ZM474.854 26.38H476.174V28H474.654C473.934 28 473.288 27.84 472.714 27.52C472.528 28.8933 471.908 29.9733 470.854 30.76C469.921 31.4533 468.768 31.8 467.394 31.8C465.608 31.8 464.228 31.2 463.254 30C462.508 29.0667 462.134 27.9533 462.134 26.66C462.134 25.5267 462.408 24.56 462.954 23.76L464.674 23.38C464.061 24.3267 463.754 25.36 463.754 26.48C463.754 27.5867 464.108 28.4933 464.814 29.2C465.468 29.8533 466.328 30.18 467.394 30.18C468.608 30.18 469.541 29.82 470.194 29.1C470.754 28.4867 471.034 27.7 471.034 26.74V16.02L472.774 15.1V24.38C472.774 25.7133 473.468 26.38 474.854 26.38ZM478.918 19.54C478.931 19.54 478.951 19.54 478.978 19.54C479.005 19.54 479.025 19.54 479.038 19.54C480.545 19.54 481.765 20.0067 482.698 20.94C483.551 21.78 483.978 22.8533 483.978 24.16V24.5C483.978 25.6467 483.625 26.54 482.918 27.18C482.291 27.7267 481.485 28 480.498 28H474.978V26.38H480.338C481.618 26.38 482.258 25.7067 482.258 24.36V24.18C482.258 23.1933 481.871 22.4333 481.098 21.9C480.485 21.4867 479.738 21.28 478.858 21.28C478.151 21.28 477.438 21.4067 476.718 21.66V19.96L481.098 15.1H482.858L478.918 19.54ZM494.615 26.94C494.615 28.4333 494.222 29.6333 493.435 30.54C492.689 31.4067 491.695 31.84 490.455 31.84C489.655 31.84 488.875 31.64 488.115 31.24V29.74C488.795 30.1133 489.475 30.3 490.155 30.3C491.009 30.3 491.675 30.0133 492.155 29.44C492.635 28.8667 492.875 28.0733 492.875 27.06V20.24L494.615 19.32V26.94ZM498.218 28V16.02L499.938 15.1V28H498.218ZM509.739 26.38H511.059V28H509.539C508.859 28 508.272 27.8667 507.779 27.6C507.659 28.92 507.199 29.9733 506.399 30.76C505.666 31.48 504.746 31.84 503.639 31.84C502.839 31.84 502.059 31.64 501.299 31.24V29.74C501.979 30.1133 502.659 30.3 503.339 30.3C504.192 30.3 504.859 30.0133 505.339 29.44C505.819 28.8667 506.059 28.0733 506.059 27.06V20.24L507.779 19.32V19.34L507.799 19.32V24.78C507.919 25.8467 508.566 26.38 509.739 26.38ZM520.801 26.38H521.941V28H520.621C519.501 28 518.628 27.6533 518.001 26.96C517.374 27.6533 516.501 28 515.381 28H509.861V26.38H515.221C516.501 26.38 517.141 25.7067 517.141 24.36V24.18C517.141 23.18 516.754 22.42 515.981 21.9C515.368 21.4733 514.614 21.26 513.721 21.26C513.014 21.26 512.308 21.3933 511.601 21.66V19.96L515.981 15.1H517.741L513.801 19.54C513.814 19.54 513.834 19.54 513.861 19.54C513.888 19.54 513.908 19.54 513.921 19.54C515.441 19.54 516.668 20 517.601 20.92C518.441 21.7733 518.861 22.8533 518.861 24.16V24.38C518.861 25.7133 519.508 26.38 520.801 26.38ZM522.28 16.9C521.627 16.9 521.3 16.5667 521.3 15.9C521.3 15.2467 521.627 14.92 522.28 14.92C522.92 14.92 523.24 15.2467 523.24 15.9C523.24 16.5667 522.92 16.9 522.28 16.9ZM524.82 16.9C524.167 16.9 523.84 16.5667 523.84 15.9C523.84 15.2467 524.167 14.92 524.82 14.92C525.46 14.92 525.78 15.2467 525.78 15.9C525.78 16.5667 525.46 16.9 524.82 16.9ZM520.74 28V26.38H522.06C523.367 26.38 524.02 25.7133 524.02 24.38V20.24L525.74 19.32V24.44C525.74 25.5733 525.4 26.4667 524.72 27.12C524.093 27.7067 523.273 28 522.26 28H520.74ZM532.399 28L533.239 26.38H536.799C537.333 26.38 537.706 26.2467 537.919 25.98C538.146 25.7133 538.259 25.2533 538.259 24.6C538.259 22.8133 537.453 21.46 535.839 20.54L536.679 19.12C538.879 20.3733 539.979 22.2067 539.979 24.62C539.979 26.8733 539.019 28 537.099 28H532.399ZM541.579 28L542.419 26.38H545.979C546.512 26.38 546.886 26.2467 547.099 25.98C547.326 25.7133 547.439 25.2533 547.439 24.6C547.439 22.8267 546.619 21.4933 544.979 20.6L545.859 19.12C547.952 20.3467 549.046 22.04 549.139 24.2C549.166 24.9733 549.339 25.5333 549.659 25.88C549.992 26.2133 550.519 26.38 551.239 26.38H552.419V28H551.099C549.992 28 549.126 27.6467 548.499 26.94C548.059 27.6467 547.319 28 546.279 28H541.579ZM562.008 26.38V28H551.228V26.38H554.688C554.035 25.54 553.708 24.5067 553.708 23.28C553.708 21.92 554.175 20.84 555.108 20.04C555.868 19.4 556.748 19.0733 557.748 19.06C559.161 19.06 560.261 19.6267 561.048 20.76V22.38C560.195 21.2333 559.161 20.66 557.948 20.66C557.188 20.66 556.575 20.9067 556.108 21.4C555.655 21.88 555.428 22.5267 555.428 23.34C555.428 24.26 555.701 25 556.248 25.56C556.808 26.1067 557.548 26.38 558.468 26.38H562.008Z" fill="white"/>
<rect x="413.5" y="66.5" width="149" height="51" rx="4.5" stroke="#CE90FF"/>
<path d="M486.524 89.344C486.598 88.3627 486.977 87.5947 487.66 87.04C488.342 86.4853 489.228 86.208 490.316 86.208C491.041 86.208 491.665 86.3413 492.188 86.608C492.721 86.864 493.121 87.216 493.388 87.664C493.665 88.112 493.804 88.6187 493.804 89.184C493.804 89.8453 493.612 90.416 493.228 90.896C492.854 91.376 492.364 91.6853 491.756 91.824V91.904C492.449 92.0747 492.998 92.4107 493.404 92.912C493.809 93.4133 494.012 94.0693 494.012 94.88C494.012 95.488 493.873 96.0373 493.596 96.528C493.318 97.008 492.902 97.3867 492.348 97.664C491.793 97.9413 491.126 98.08 490.348 98.08C489.217 98.08 488.289 97.7867 487.564 97.2C486.838 96.6027 486.433 95.76 486.348 94.672H487.756C487.83 95.312 488.092 95.8347 488.54 96.24C488.988 96.6453 489.585 96.848 490.332 96.848C491.078 96.848 491.644 96.656 492.028 96.272C492.422 95.8773 492.62 95.3707 492.62 94.752C492.62 93.952 492.353 93.376 491.82 93.024C491.286 92.672 490.481 92.496 489.404 92.496H489.036V91.28H489.42C490.401 91.2693 491.142 91.1093 491.644 90.8C492.145 90.48 492.396 89.9893 492.396 89.328C492.396 88.7627 492.209 88.3093 491.836 87.968C491.473 87.6267 490.95 87.456 490.268 87.456C489.606 87.456 489.073 87.6267 488.668 87.968C488.262 88.3093 488.022 88.768 487.948 89.344H486.524Z" fill="white"/>
<rect x="533.564" y="71" width="24.4364" height="19.8545" rx="3.81818" fill="#FF4444"/>
<path d="M541.2 83.2183L545.782 78.6364L550.364 83.2183" stroke="white" stroke-width="1.5"/>
<rect x="558" y="113" width="24.4364" height="19.8545" rx="3.81818" transform="rotate(-180 558 113)" fill="#F4A0A0"/>
<path d="M550.364 100.782L545.782 105.364L541.2 100.782" stroke="#1F1F1F" stroke-width="1.5"/>
<rect x="239" y="166" width="150" height="48" rx="5" fill="#7D38B5"/>
<path d="M305.692 196.652C304.796 197.217 303.793 197.5 302.684 197.5C301.404 197.5 300.375 197.1 299.596 196.3C298.945 195.617 298.62 194.785 298.62 193.804C298.62 193.164 298.775 192.577 299.084 192.044C299.404 191.511 299.836 191.1 300.38 190.812C299.377 190.161 298.876 189.132 298.876 187.724C298.876 186.636 299.255 185.772 300.012 185.132C300.609 184.62 301.313 184.359 302.124 184.348C303.233 184.348 304.113 184.801 304.764 185.708V187.004C304.071 186.087 303.249 185.628 302.3 185.628C301.692 185.628 301.201 185.825 300.828 186.22C300.455 186.604 300.268 187.121 300.268 187.772C300.268 188.508 300.487 189.1 300.924 189.548C301.372 189.985 301.964 190.204 302.7 190.204H305.532V191.5H302.732C301.74 191.5 300.999 191.767 300.508 192.3C300.135 192.695 299.948 193.191 299.948 193.788C299.948 194.513 300.204 195.095 300.716 195.532C301.239 195.98 301.921 196.204 302.764 196.204C303.948 196.193 304.924 195.911 305.692 195.356V196.652ZM315.396 190.204V191.5H313.412C313.37 192.417 312.975 193.175 312.228 193.772C311.599 194.263 310.884 194.508 310.084 194.508C309.423 194.508 308.799 194.353 308.212 194.044V192.828C308.778 193.127 309.338 193.276 309.892 193.276C310.458 193.276 310.948 193.1 311.364 192.748C311.791 192.396 312.01 191.975 312.02 191.484C311.466 191.463 311.055 191.441 310.788 191.42C309.636 191.356 308.767 190.967 308.18 190.252C307.69 189.655 307.444 188.881 307.444 187.932C307.444 186.769 307.754 185.863 308.372 185.212C308.927 184.636 309.658 184.348 310.564 184.348C311.514 184.348 312.244 184.631 312.756 185.196C313.194 185.697 313.412 186.353 313.412 187.164V190.204H315.396ZM312.02 187.26C312.02 186.172 311.535 185.628 310.564 185.628C310.01 185.628 309.578 185.831 309.268 186.236C308.959 186.631 308.804 187.185 308.804 187.9C308.804 189.297 309.487 190.039 310.852 190.124C311.108 190.156 311.498 190.183 312.02 190.204V187.26ZM314.442 191.5V190.204H316.634C318.799 190.204 320.511 189.489 321.77 188.06C320.885 186.428 319.807 185.612 318.538 185.612C317.674 185.612 316.783 186.071 315.866 186.988V185.708C316.762 184.801 317.711 184.348 318.714 184.348C319.535 184.348 320.33 184.647 321.098 185.244C321.866 185.831 322.543 186.673 323.13 187.772V188.476C321.562 190.492 319.391 191.5 316.618 191.5H314.442ZM319.13 194.684C318.607 194.684 318.346 194.417 318.346 193.884C318.346 193.361 318.607 193.1 319.13 193.1C319.642 193.1 319.898 193.361 319.898 193.884C319.898 194.417 319.642 194.684 319.13 194.684ZM328.23 190.652C328.23 191.847 327.915 192.807 327.286 193.532C326.689 194.225 325.894 194.572 324.902 194.572C324.262 194.572 323.638 194.412 323.03 194.092V192.892C323.574 193.191 324.118 193.34 324.662 193.34C325.345 193.34 325.878 193.111 326.262 192.652C326.646 192.193 326.838 191.559 326.838 190.748V185.292L328.23 184.556V190.652Z" fill="white"/>
<rect x="413" y="166" width="150" height="48" rx="5" fill="url(#paint0_linear_36_1742)"/>
<path d="M480.024 182.62C479.501 182.62 479.24 182.353 479.24 181.82C479.24 181.297 479.501 181.036 480.024 181.036C480.536 181.036 480.792 181.297 480.792 181.82C480.792 182.353 480.536 182.62 480.024 182.62ZM485.48 190.204H486.536V191.5H485.32C484.467 191.5 483.8 191.249 483.32 190.748C482.883 191.249 482.264 191.5 481.464 191.5H471.32L472.008 190.204H474.152L474.2 190.028V181.916L475.576 181.18V187.036C476.792 185.244 478.301 184.348 480.104 184.348C481.309 184.348 482.275 184.769 483 185.612C483.619 186.327 483.928 187.207 483.928 188.252V188.636C483.928 189.681 484.445 190.204 485.48 190.204ZM482.536 188.7V188.252C482.536 187.42 482.28 186.759 481.768 186.268C481.331 185.841 480.781 185.628 480.12 185.628C479.021 185.628 478.029 186.124 477.144 187.116C476.483 187.863 475.96 188.796 475.576 189.916V190.204H481.352C481.811 190.204 482.12 190.097 482.28 189.884C482.451 189.671 482.536 189.276 482.536 188.7ZM490.591 182.716C490.068 182.716 489.807 182.449 489.807 181.916C489.807 181.393 490.068 181.132 490.591 181.132C491.103 181.132 491.359 181.393 491.359 181.916C491.359 182.449 491.103 182.716 490.591 182.716ZM492.575 190.204H495.551V191.5H491.647C491.231 191.5 490.868 191.463 490.559 191.388C490.26 191.463 489.897 191.5 489.471 191.5H485.582V190.204H488.559C487.897 189.447 487.567 188.609 487.567 187.692C487.567 186.647 487.86 185.815 488.447 185.196C488.98 184.631 489.684 184.348 490.559 184.348C491.561 184.348 492.335 184.711 492.879 185.436C493.337 186.033 493.567 186.785 493.567 187.692C493.567 188.609 493.236 189.447 492.575 190.204ZM490.575 190.06C491.065 189.889 491.465 189.58 491.775 189.132C492.084 188.673 492.239 188.172 492.239 187.628C492.239 187.009 492.084 186.524 491.775 186.172C491.476 185.809 491.071 185.628 490.559 185.628C490.047 185.628 489.636 185.809 489.327 186.172C489.028 186.535 488.879 187.02 488.879 187.628C488.879 188.161 489.039 188.657 489.359 189.116C489.679 189.575 490.084 189.889 490.575 190.06ZM494.598 191.5V190.204H496.79C498.955 190.204 500.667 189.489 501.926 188.06C501.041 186.428 499.963 185.612 498.694 185.612C497.83 185.612 496.939 186.071 496.022 186.988V185.708C496.918 184.801 497.867 184.348 498.87 184.348C499.691 184.348 500.486 184.647 501.254 185.244C502.022 185.831 502.699 186.673 503.286 187.772V188.476C501.718 190.492 499.547 191.5 496.774 191.5H494.598Z" fill="white"/>
<defs>
<linearGradient id="paint0_linear_36_1742" x1="475" y1="214" x2="474.5" y2="166" gradientUnits="userSpaceOnUse">
<stop stop-color="#E33A3A"/>
<stop offset="1" stop-color="#FF4444"/>
</linearGradient>
</defs>
</svg>
